<svg width="20" height="18" viewBox="0 0 20 18" fill="none" xmlns="http://www.w3.org/2000/svg">
<path d="M14.8135 4.49955L9.0327 10.28C8.69 10.6226 8.13409 10.6226 7.79139 10.28L7.37738 9.86599C7.03468 9.52332 7.03468 8.96744 7.37738 8.62477L7.3814 8.62075C6.1368 7.15022 6.09547 5.0024 7.25742 3.4869C6.81963 3.21078 6.30138 3.05133 5.74693 3.05133C4.17865 3.05133 2.90297 4.32693 2.90297 5.8951V17.0946H0.562256V5.8951C0.562256 3.03634 2.88797 0.710785 5.74693 0.710785C7.09759 0.710785 8.32939 1.23009 9.25287 2.07928C10.5659 1.65834 12.0508 1.91471 13.1542 2.84837L13.1582 2.84434C13.5009 2.50167 14.0568 2.50167 14.3995 2.84434L14.8135 3.25833C15.1562 3.601 15.1562 4.15688 14.8135 4.49955ZM14.6065 7.1473C14.6065 7.47048 14.3445 7.73243 14.0213 7.73243C13.6981 7.73243 13.4362 7.47048 13.4362 7.1473C13.4362 6.82412 13.6981 6.56216 14.0213 6.56216C14.3445 6.56216 14.6065 6.82412 14.6065 7.1473ZM15.7769 7.1473C15.7769 6.82412 16.0388 6.56216 16.362 6.56216C16.6852 6.56216 16.9472 6.82412 16.9472 7.1473C16.9472 7.47048 16.6852 7.73243 16.362 7.73243C16.0388 7.73243 15.7769 7.47048 15.7769 7.1473ZM19.2879 7.1473C19.2879 7.47048 19.026 7.73243 18.7028 7.73243C18.3796 7.73243 18.1176 7.47048 18.1176 7.1473C18.1176 6.82412 18.3796 6.56216 18.7028 6.56216C19.026 6.56216 19.2879 6.82412 19.2879 7.1473ZM13.4362 8.31757C13.4362 8.64075 13.1742 8.90271 12.851 8.90271C12.5278 8.90271 12.2658 8.64075 12.2658 8.31757C12.2658 7.99439 12.5278 7.73243 12.851 7.73243C13.1742 7.73243 13.4362 7.99439 13.4362 8.31757ZM15.1917 7.73243C15.5149 7.73243 15.7769 7.99439 15.7769 8.31757C15.7769 8.64075 15.5149 8.90271 15.1917 8.90271C14.8685 8.90271 14.6065 8.64075 14.6065 8.31757C14.6065 7.99439 14.8685 7.73243 15.1917 7.73243ZM18.1176 8.31757C18.1176 8.64075 17.8556 8.90271 17.5324 8.90271C17.2092 8.90271 16.9472 8.64075 16.9472 8.31757C16.9472 7.99439 17.2092 7.73243 17.5324 7.73243C17.8556 7.73243 18.1176 7.99439 18.1176 8.31757ZM12.2658 9.48785C12.2658 9.81103 12.0038 10.073 11.6806 10.073C11.3574 10.073 11.0954 9.81103 11.0954 9.48785C11.0954 9.16467 11.3574 8.90271 11.6806 8.90271C12.0038 8.90271 12.2658 9.16467 12.2658 9.48785ZM13.4362 9.48785C13.4362 9.16467 13.6981 8.90271 14.0213 8.90271C14.3445 8.90271 14.6065 9.16467 14.6065 9.48785C14.6065 9.81103 14.3445 10.073 14.0213 10.073C13.6981 10.073 13.4362 9.81103 13.4362 9.48785ZM16.9472 9.48785C16.9472 9.81103 16.6852 10.073 16.362 10.073C16.0388 10.073 15.7769 9.81103 15.7769 9.48785C15.7769 9.16467 16.0388 8.90271 16.362 8.90271C16.6852 8.90271 16.9472 9.16467 16.9472 9.48785ZM12.2658 10.6581C12.2658 10.3349 12.5278 10.073 12.851 10.073C13.1742 10.073 13.4362 10.3349 13.4362 10.6581C13.4362 10.9813 13.1742 11.2433 12.851 11.2433C12.5278 11.2433 12.2658 10.9813 12.2658 10.6581ZM15.7769 10.6581C15.7769 10.9813 15.5149 11.2433 15.1917 11.2433C14.8685 11.2433 14.6065 10.9813 14.6065 10.6581C14.6065 10.3349 14.8685 10.073 15.1917 10.073C15.5149 10.073 15.7769 10.3349 15.7769 10.6581ZM12.2658 11.8284C12.2658 12.1516 12.0038 12.4135 11.6806 12.4135C11.3574 12.4135 11.0954 12.1516 11.0954 11.8284C11.0954 11.5052 11.3574 11.2433 11.6806 11.2433C12.0038 11.2433 12.2658 11.5052 12.2658 11.8284ZM14.6065 11.8284C14.6065 12.1516 14.3445 12.4135 14.0213 12.4135C13.6981 12.4135 13.4362 12.1516 13.4362 11.8284C13.4362 11.5052 13.6981 11.2433 14.0213 11.2433C14.3445 11.2433 14.6065 11.5052 14.6065 11.8284ZM13.4362 12.9987C13.4362 13.3219 13.1742 13.5838 12.851 13.5838C12.5278 13.5838 12.2658 13.3219 12.2658 12.9987C12.2658 12.6755 12.5278 12.4135 12.851 12.4135C13.1742 12.4135 13.4362 12.6755 13.4362 12.9987ZM12.2658 14.1689C12.2658 14.4921 12.0038 14.7541 11.6806 14.7541C11.3574 14.7541 11.0954 14.4921 11.0954 14.1689C11.0954 13.8458 11.3574 13.5838 11.6806 13.5838C12.0038 13.5838 12.2658 13.8458 12.2658 14.1689Z" fill="#FB7125"/>
</svg>
