<svg width="119" height="97" viewBox="0 0 119 97" fill="none" xmlns="http://www.w3.org/2000/svg">
<path d="M82.3105 56.7833C77.5339 56.7833 72.9185 56.7833 68.3887 56.7734C65.0891 56.7701 63.1877 54.8818 63.1778 51.5977C63.1581 46.5074 63.1614 41.9261 63.1778 37.5944C63.191 34.4023 65.1122 32.491 68.3196 32.4779C71.6421 32.468 74.9647 32.4713 78.2872 32.4713H82.3434H86.4949C89.7846 32.4713 93.0742 32.4713 96.3639 32.4713C99.8246 32.4779 101.657 34.3104 101.664 37.7783C101.673 43.0066 101.673 47.3744 101.664 51.5255C101.654 54.9048 99.7983 56.7669 96.4297 56.7701C91.538 56.7767 86.8535 56.78 82.3105 56.78V56.7833ZM74.2245 35.7554C72.2606 35.7554 70.2934 35.7554 68.3294 35.7652C66.9248 35.7685 66.4741 36.2184 66.4675 37.6109C66.4478 41.936 66.4478 46.5074 66.4675 51.5879C66.4741 53.0624 66.905 53.4894 68.3952 53.4894C77.228 53.5025 86.3962 53.5025 96.4264 53.4894C98.0054 53.4894 98.3706 53.1183 98.3739 51.5189C98.3837 47.3711 98.3837 43.0099 98.3739 37.7882C98.3739 36.1429 97.9956 35.7619 96.3573 35.7586C93.0709 35.7554 89.7813 35.7554 86.4949 35.7586H82.3401H78.2807C76.9286 35.7586 75.5766 35.7586 74.2212 35.7586L74.2245 35.7554Z" fill="white"/>
<path d="M117.483 25.9721C111.815 23.8736 106.164 21.7291 100.486 19.6568C99.7029 19.3711 80.9847 12.3761 78.8629 11.5846C68.9479 7.88672 59.0329 4.19214 49.1146 0.504131C47.7757 0.00495208 46.8546 0.326791 46.473 1.38426C46.1078 2.39247 46.5848 3.15766 47.9007 3.65684C48.779 3.99182 49.6541 4.33993 50.5456 4.63221C51.1739 4.83582 51.4272 5.15109 51.4206 5.86374C51.3877 11.8013 51.391 17.7422 51.414 23.6798C51.414 24.3169 51.2101 24.5994 50.6048 24.8161C47.9862 25.7488 45.394 26.7472 42.7886 27.716C29.1167 32.7997 15.4416 37.8802 1.76984 42.9672C0.30923 43.5091 -0.25988 44.3366 0.101982 45.3547C0.490161 46.445 1.44416 46.7045 3.00675 46.1298C4.34564 45.6404 5.67795 45.1445 7.1879 44.5862V46.1035C7.1879 62.1987 7.1879 78.2939 7.1879 94.3892C7.1879 96.5403 7.64516 97.0066 9.74725 97.0066C43.634 97.0066 77.5207 97.0066 111.407 97.0066C113.526 97.0066 113.98 96.5468 113.98 94.4122C113.98 72.8293 113.98 51.2463 113.98 29.6601V28.2677C114.579 28.4713 115.039 28.6224 115.5 28.7866C115.96 28.9508 116.411 29.1544 116.878 29.2956C117.898 29.6076 118.829 29.0493 118.974 28.0345C119.138 26.8851 118.474 26.3432 117.48 25.9754L117.483 25.9721ZM38.4067 92.6125C38.4067 93.3481 38.2554 93.5879 37.4725 93.5813C32.8801 93.5419 28.291 93.5386 23.6987 93.5813C22.8631 93.5879 22.692 93.3219 22.6986 92.5468C22.7348 88.3728 22.7151 84.1987 22.7151 80.0247C22.7151 75.8506 22.7381 71.7587 22.6953 67.624C22.6855 66.7898 22.8664 66.5107 23.7612 66.5173C28.2713 66.5665 32.7814 66.5567 37.2883 66.5206C38.0942 66.514 38.4133 66.6486 38.41 67.5616C38.3705 75.9097 38.3771 84.2578 38.4034 92.6092L38.4067 92.6125ZM49.983 93.6207C47.6079 93.5452 45.2262 93.555 42.8478 93.6207C41.9793 93.6437 41.7721 93.4007 41.7753 92.5435C41.8082 84.1495 41.7984 75.7554 41.7951 67.3646C41.7951 64.3202 40.7128 63.2496 37.6435 63.2496C32.8045 63.2496 27.9654 63.243 23.1263 63.2496C20.4748 63.2562 19.3234 64.4089 19.3202 67.0854C19.3103 75.3974 19.3202 83.7094 19.3202 92.0214C19.3202 93.0723 18.7741 93.5977 17.6819 93.5977C15.7147 93.5977 13.7409 93.5386 11.777 93.624C10.7934 93.6667 10.5861 93.358 10.5894 92.4187C10.6223 79.4401 10.6124 66.4614 10.6124 53.4828C10.6124 50.3695 10.6322 47.2595 10.596 44.1495C10.5894 43.5222 10.7703 43.2299 11.3691 43.0099C24.5112 38.1495 37.6468 33.266 50.7857 28.3892C50.8976 28.3465 51.0127 28.3169 51.3153 28.225V29.5616C51.3153 50.4844 51.3055 71.4072 51.3449 92.3268C51.3449 93.4631 51.0127 93.6568 49.9863 93.624L49.983 93.6207ZM80.1097 93.5747C75.5996 93.5452 71.0895 93.5419 66.5826 93.5747C65.8523 93.5813 65.7207 93.3317 65.7273 92.6716C65.7602 89.9294 65.7405 87.1872 65.7405 84.445C65.7405 81.7028 65.7602 78.8785 65.7273 76.0969C65.7207 75.4302 65.8655 75.1774 66.5958 75.1807C71.1059 75.2135 75.616 75.2135 80.1229 75.1807C80.8564 75.1741 80.9946 75.4467 80.9913 76.11C80.9683 81.6339 80.965 87.1609 80.9913 92.6848C80.9946 93.381 80.8005 93.5747 80.1064 93.5715L80.1097 93.5747ZM99.4627 84.445C99.4627 87.1872 99.443 89.9327 99.4759 92.6749C99.4825 93.3383 99.3476 93.5846 98.6173 93.578C94.1467 93.5419 89.676 93.5485 85.2054 93.5747C84.5771 93.578 84.3698 93.427 84.3731 92.7669C84.3994 87.1971 84.4027 81.6273 84.3731 76.0608C84.3698 75.3219 84.6396 75.1872 85.3041 75.1905C89.7352 75.2168 94.1631 75.2201 98.5943 75.1905C99.3081 75.1839 99.4858 75.4073 99.4759 76.0936C99.4397 78.8785 99.4595 81.6634 99.4595 84.4483L99.4627 84.445ZM109.368 93.6174C107.608 93.5419 105.838 93.5452 104.078 93.6174C103.154 93.6536 102.845 93.4434 102.854 92.4417C102.91 86.8325 102.881 81.2233 102.881 75.6142C102.881 72.8293 101.887 71.821 99.1272 71.821C88.097 71.8178 77.0701 71.8178 66.0398 71.821C63.3226 71.821 62.3159 72.8227 62.3159 75.5058C62.3159 81.1544 62.2962 86.8063 62.3357 92.4549C62.3423 93.3186 62.2107 93.6733 61.2304 93.6207C59.5132 93.5255 57.7861 93.5419 56.0656 93.6142C55.1346 93.6536 54.8419 93.4335 54.8451 92.4352C54.8879 82.8949 54.8715 73.3547 54.8715 63.8145V49.936C54.8715 42.1166 54.8813 34.2972 54.8682 26.4746C54.855 20.1297 54.8353 13.7849 54.7629 7.44009C54.7497 6.37277 54.98 6.26111 55.9505 6.62236C73.7837 13.2759 91.6235 19.9064 109.473 26.514C110.286 26.8161 110.578 27.1741 110.578 28.0673C110.549 49.5222 110.549 70.977 110.578 92.4286C110.578 93.4105 110.309 93.6503 109.368 93.6109V93.6174Z" fill="white"/>
<path d="M83.4059 34.2643H81.4321V54.9868H83.4059V34.2643Z" fill="white"/>
</svg>
