<svg width="119" height="100" viewBox="0 0 119 100" fill="none" xmlns="http://www.w3.org/2000/svg">
<g clip-path="url(#clip0_101_1788)">
<path d="M82.3105 59.7833C77.5339 59.7833 72.9185 59.7833 68.3887 59.7734C65.0891 59.7701 63.1877 57.8818 63.1778 54.5977C63.1581 49.5074 63.1614 44.9261 63.1778 40.5944C63.191 37.4023 65.1122 35.491 68.3196 35.4779C71.6421 35.468 74.9647 35.4713 78.2872 35.4713H82.3434H86.4949C89.7846 35.4713 93.0742 35.4713 96.3639 35.4713C99.8246 35.4779 101.657 37.3104 101.664 40.7783C101.673 46.0066 101.673 50.3744 101.664 54.5255C101.654 57.9048 99.7983 59.7669 96.4297 59.7701C91.538 59.7767 86.8535 59.78 82.3105 59.78V59.7833ZM74.2245 38.7554C72.2606 38.7554 70.2934 38.7554 68.3294 38.7652C66.9248 38.7685 66.4741 39.2184 66.4675 40.6109C66.4478 44.936 66.4478 49.5074 66.4675 54.5879C66.4741 56.0624 66.905 56.4894 68.3952 56.4894C77.228 56.5025 86.3962 56.5025 96.4264 56.4894C98.0054 56.4894 98.3706 56.1182 98.3739 54.5189C98.3837 50.3711 98.3837 46.0099 98.3739 40.7882C98.3739 39.1429 97.9956 38.7619 96.3573 38.7586C93.0709 38.7554 89.7813 38.7554 86.4949 38.7586H82.3401H78.2807C76.9286 38.7586 75.5766 38.7586 74.2212 38.7586L74.2245 38.7554Z" fill="black"/>
<path d="M117.483 28.9721C111.815 26.8736 106.164 24.7291 100.486 22.6568C99.7029 22.3711 80.9847 15.3761 78.8629 14.5846C68.9479 10.8867 59.0329 7.19214 49.1146 3.50413C47.7757 3.00495 46.8546 3.32679 46.473 4.38426C46.1078 5.39247 46.5848 6.15766 47.9007 6.65684C48.779 6.99182 49.6541 7.33993 50.5456 7.63221C51.1739 7.83582 51.4272 8.15109 51.4206 8.86374C51.3877 14.8013 51.391 20.7422 51.414 26.6798C51.414 27.3169 51.2101 27.5994 50.6048 27.8161C47.9862 28.7488 45.394 29.7472 42.7886 30.716C29.1167 35.7997 15.4416 40.8802 1.76984 45.9672C0.30923 46.5091 -0.25988 47.3366 0.101982 48.3547C0.490161 49.445 1.44416 49.7045 3.00675 49.1297C4.34564 48.6404 5.67795 48.1445 7.1879 47.5862V49.1035C7.1879 65.1987 7.1879 81.294 7.1879 97.3892C7.1879 99.5403 7.64516 100.007 9.74725 100.007C43.634 100.007 77.5207 100.007 111.407 100.007C113.526 100.007 113.98 99.5468 113.98 97.4122C113.98 75.8293 113.98 54.2463 113.98 32.6601V31.2677C114.579 31.4713 115.039 31.6224 115.5 31.7866C115.96 31.9508 116.411 32.1544 116.878 32.2956C117.898 32.6076 118.829 32.0493 118.974 31.0345C119.138 29.8851 118.474 29.3432 117.48 28.9754L117.483 28.9721ZM38.4067 95.6125C38.4067 96.3481 38.2554 96.5879 37.4725 96.5813C32.8801 96.5419 28.291 96.5386 23.6987 96.5813C22.8631 96.5879 22.692 96.3219 22.6986 95.5468C22.7348 91.3728 22.7151 87.1987 22.7151 83.0247C22.7151 78.8506 22.7381 74.7587 22.6953 70.624C22.6855 69.7898 22.8664 69.5107 23.7612 69.5173C28.2713 69.5665 32.7814 69.5567 37.2882 69.5206C38.0942 69.514 38.4133 69.6486 38.41 70.5616C38.3705 78.9097 38.3771 87.2578 38.4034 95.6092L38.4067 95.6125ZM49.983 96.6207C47.6079 96.5452 45.2262 96.555 42.8478 96.6207C41.9793 96.6437 41.7721 96.4007 41.7753 95.5435C41.8082 87.1495 41.7984 78.7554 41.7951 70.3646C41.7951 67.3202 40.7128 66.2496 37.6435 66.2496C32.8045 66.2496 27.9654 66.243 23.1263 66.2496C20.4748 66.2562 19.3234 67.4089 19.3202 70.0854C19.3103 78.3974 19.3202 86.7094 19.3202 95.0214C19.3202 96.0723 18.7741 96.5977 17.6819 96.5977C15.7147 96.5977 13.7409 96.5386 11.777 96.624C10.7934 96.6667 10.5861 96.358 10.5894 95.4187C10.6223 82.4401 10.6124 69.4614 10.6124 56.4828C10.6124 53.3695 10.6322 50.2595 10.596 47.1495C10.5894 46.5222 10.7703 46.2299 11.3691 46.0099C24.5112 41.1495 37.6468 36.266 50.7857 31.3892C50.8976 31.3465 51.0127 31.3169 51.3153 31.225V32.5616C51.3153 53.4844 51.3055 74.4072 51.3449 95.3268C51.3449 96.4631 51.0127 96.6568 49.9863 96.624L49.983 96.6207ZM80.1097 96.5747C75.5996 96.5452 71.0895 96.5419 66.5826 96.5747C65.8523 96.5813 65.7207 96.3317 65.7273 95.6716C65.7602 92.9294 65.7405 90.1872 65.7405 87.445C65.7405 84.7028 65.7602 81.8785 65.7273 79.0969C65.7207 78.4302 65.8655 78.1774 66.5958 78.1806C71.1059 78.2135 75.616 78.2135 80.1229 78.1806C80.8564 78.1741 80.9946 78.4467 80.9913 79.11C80.9683 84.6339 80.965 90.1609 80.9913 95.6848C80.9946 96.381 80.8005 96.5747 80.1064 96.5715L80.1097 96.5747ZM99.4627 87.445C99.4627 90.1872 99.443 92.9327 99.4759 95.6749C99.4825 96.3383 99.3476 96.5846 98.6173 96.578C94.1467 96.5419 89.676 96.5485 85.2054 96.5747C84.5771 96.578 84.3698 96.427 84.3731 95.7669C84.3994 90.1971 84.4027 84.6273 84.3731 79.0608C84.3698 78.3219 84.6396 78.1872 85.3041 78.1905C89.7352 78.2168 94.1631 78.2201 98.5943 78.1905C99.3081 78.1839 99.4858 78.4072 99.4759 79.0936C99.4397 81.8785 99.4595 84.6634 99.4595 87.4483L99.4627 87.445ZM109.368 96.6174C107.608 96.5419 105.838 96.5452 104.078 96.6174C103.154 96.6536 102.845 96.4434 102.854 95.4417C102.91 89.8325 102.881 84.2234 102.881 78.6142C102.881 75.8293 101.887 74.821 99.1272 74.821C88.097 74.8178 77.0701 74.8178 66.0398 74.821C63.3226 74.821 62.3159 75.8227 62.3159 78.5058C62.3159 84.1544 62.2962 89.8063 62.3357 95.4549C62.3423 96.3186 62.2107 96.6733 61.2304 96.6207C59.5132 96.5255 57.7861 96.5419 56.0656 96.6142C55.1346 96.6536 54.8419 96.4335 54.8451 95.4352C54.8879 85.8949 54.8715 76.3547 54.8715 66.8145V52.936C54.8715 45.1166 54.8813 37.2972 54.8682 29.4746C54.855 23.1297 54.8353 16.7849 54.7629 10.4401C54.7497 9.37277 54.98 9.26111 55.9505 9.62236C73.7837 16.2759 91.6235 22.9064 109.473 29.514C110.286 29.8161 110.578 30.1741 110.578 31.0673C110.549 52.5222 110.549 73.977 110.578 95.4286C110.578 96.4105 110.309 96.6503 109.368 96.6109V96.6174Z" fill="black"/>
<path d="M83.4059 37.2643H81.4321V57.9868H83.4059V37.2643Z" fill="black"/>
</g>
<defs>
<clipPath id="clip0_101_1788">
<rect width="119" height="100" fill="white"/>
</clipPath>
</defs>
</svg>
