<svg width="19" height="15" viewBox="0 0 19 15" fill="none" xmlns="http://www.w3.org/2000/svg">
<path d="M16.5044 6.13947L16.0933 5.11182L15.3644 3.28948C14.7387 1.72533 13.2461 0.714874 11.5611 0.714874H6.9163C5.23172 0.714874 3.73879 1.72533 3.11301 3.28948L2.3841 5.11182L1.97301 6.13947C1.09086 6.47482 0.46106 7.32181 0.46106 8.32166V10.0771C0.46106 10.6666 0.686353 11.1987 1.04624 11.6105V13.5879C1.04624 14.2341 1.57034 14.7582 2.21659 14.7582H3.38695C4.0332 14.7582 4.5573 14.2341 4.5573 13.5879V12.4176H13.9201V13.5879C13.9201 14.2341 14.4442 14.7582 15.0905 14.7582H16.2609C16.9071 14.7582 17.4312 14.2341 17.4312 13.5879V11.6105C17.7911 11.1991 18.0164 10.667 18.0164 10.0771V8.32166C18.0164 7.32181 17.3866 6.47482 16.5044 6.13947ZM5.28621 4.15878C5.55284 3.49245 6.19836 3.05542 6.9163 3.05542H11.5611C12.2791 3.05542 12.9246 3.49245 13.1912 4.15878L13.9201 5.98111H4.5573L5.28621 4.15878ZM3.38695 10.0698C2.68473 10.0698 2.21659 9.60312 2.21659 8.90314C2.21659 8.20317 2.68473 7.73653 3.38695 7.73653C4.08916 7.73653 5.14248 8.78648 5.14248 9.48645C5.14248 10.1864 4.08916 10.0698 3.38695 10.0698ZM15.0905 10.0698C14.3883 10.0698 13.335 10.1864 13.335 9.48645C13.335 8.78648 14.3883 7.73653 15.0905 7.73653C15.7927 7.73653 16.2609 8.20317 16.2609 8.90314C16.2609 9.60312 15.7927 10.0698 15.0905 10.0698Z" fill="#FB7125"/>
</svg>
