<svg width="38" height="34" viewBox="0 0 38 34" fill="none" xmlns="http://www.w3.org/2000/svg">
<g clip-path="url(#clip0_32_927)">
<path d="M38 12.4049C37.8664 13.1473 37.7764 13.9006 37.5903 14.63C36.957 17.1042 35.6082 19.1858 33.9793 21.1029C32.013 23.4167 29.7469 25.4206 27.4659 27.4065C25.1869 29.3924 22.8871 31.3545 20.6051 33.3384C19.9243 33.9303 19.1712 34.1635 18.3083 33.8815C18.0233 33.7878 17.7403 33.6224 17.5136 33.4231C13.9591 30.3181 10.3817 27.2361 6.87661 24.0754C4.75495 22.1622 2.86089 20.0268 1.51109 17.4639C0.728333 15.9782 0.217708 14.4068 0.0623438 12.7258C0.0534375 12.6181 0.0217708 12.5115 0 12.4049C0 11.7831 0 11.1613 0 10.5395C0.0227604 10.42 0.0564063 10.3024 0.0672917 10.1818C0.240469 8.38819 0.761979 6.70817 1.67536 5.15569C3.87323 1.42497 7.99682 -0.530074 12.2402 0.161465C14.6508 0.554068 16.5805 1.80262 18.1846 3.6072C18.4617 3.91909 18.718 4.25091 19.0059 4.60067C19.1633 4.39938 19.3058 4.21603 19.4503 4.03568C22.2844 0.486309 26.4892 -0.860897 30.6543 0.553071C34.4207 1.83152 36.6304 4.58373 37.62 8.3842C37.8031 9.0877 37.8763 9.82109 38.001 10.5405V12.4059L38 12.4049Z" fill="#FB7125"/>
</g>
<defs>
<clipPath id="clip0_32_927">
<rect width="38" height="34" fill="white"/>
</clipPath>
</defs>
</svg>
