<svg width="24" height="21" viewBox="0 0 24 21" fill="none" xmlns="http://www.w3.org/2000/svg">
<g clip-path="url(#clip0_2014_341)">
<path d="M23.0745 8.11184C22.9936 8.55515 22.9391 9.005 22.8264 9.44058C22.4429 10.9181 21.6261 12.1611 20.6397 13.306C19.4489 14.6877 18.0765 15.8843 16.6952 17.0703C15.3151 18.2562 13.9224 19.4278 12.5404 20.6126C12.1281 20.966 11.6721 21.1053 11.1495 20.9369C10.9769 20.8809 10.8055 20.7822 10.6683 20.6632C8.51567 18.809 6.34928 16.9685 4.22664 15.081C2.94179 13.9385 1.79477 12.6633 0.977353 11.1329C0.503324 10.2457 0.194097 9.30729 0.10001 8.30344C0.0946169 8.23918 0.07544 8.17551 0.0622559 8.11184C0.0622559 7.74053 0.0622559 7.36922 0.0622559 6.99791C0.0760392 6.9265 0.0964147 6.85629 0.103007 6.78429C0.20788 5.7132 0.5237 4.70996 1.07683 3.78287C2.40783 1.55502 4.90502 0.387536 7.47472 0.800499C8.93456 1.03495 10.1032 1.78054 11.0746 2.85817C11.2424 3.04442 11.3976 3.24257 11.572 3.45143C11.6673 3.33123 11.7536 3.22174 11.8411 3.11404C13.5574 0.994484 16.1037 0.189981 18.6261 1.03435C20.9069 1.7978 22.2451 3.44132 22.8444 5.71082C22.9553 6.13093 22.9996 6.56888 23.0751 6.99851V8.11243L23.0745 8.11184ZM11.5702 19.6688C12.1623 19.1642 12.7412 18.6715 13.3189 18.1776C15.0826 16.6704 16.8912 15.2137 18.5422 13.5809C19.537 12.5973 20.4785 11.5637 21.0777 10.2879C22.0683 8.17908 21.9964 6.0982 20.6822 4.15002C19.2182 1.97988 16.2697 1.40507 14.1399 2.80997C13.3782 3.31279 12.8029 3.98995 12.3229 4.75518C11.9417 5.36213 11.2106 5.35856 10.8157 4.76292C10.6269 4.47789 10.4346 4.19345 10.2206 3.92747C7.8229 0.94569 3.68369 1.75198 2.14535 4.63141C1.21407 6.3743 1.15534 8.18146 1.92361 9.99933C2.44978 11.2442 3.28218 12.2938 4.25121 13.2179C5.53426 14.4419 6.86346 15.6201 8.19446 16.7936C9.29653 17.7647 10.4304 18.7001 11.5702 19.6682V19.6688Z" fill="#FB7125"/>
</g>
<defs>
<clipPath id="clip0_2014_341">
<rect width="23.0123" height="20.3036" fill="white" transform="translate(0.0622559 0.703979)"/>
</clipPath>
</defs>
</svg>
