<svg width="128" height="128" viewBox="0 0 128 128" fill="none" xmlns="http://www.w3.org/2000/svg">
<path d="M107.355 99.0949C105.745 99.0949 104.326 99.0294 102.916 99.1328C102.458 99.1673 101.91 99.536 101.61 99.9185C100.146 101.772 98.7533 103.685 97.3335 105.577C95.7656 107.665 95.2797 107.782 93.0018 106.548C91.6992 108.282 90.3863 110.029 89.0733 111.772C87.5054 113.857 87.0333 113.971 84.7451 112.741C83.439 114.474 82.1261 116.221 80.8131 117.968C79.2417 120.057 78.7903 120.163 76.4883 118.937C75.0513 120.842 73.6143 122.765 72.1635 124.678C71.0332 126.166 70.0752 126.304 68.5555 125.201C66.96 124.04 65.3748 122.868 63.6518 121.6C62.3802 123.285 61.1534 124.915 59.9231 126.545C58.5929 128.303 57.759 128.43 55.9429 127.131C46.7075 120.539 37.4755 113.943 28.247 107.348C26.5481 106.131 26.4137 105.194 27.6887 103.485C28.9982 101.728 30.3146 99.9771 31.8791 97.8923C30.9039 97.5718 30.0837 97.0962 29.2498 97.0652C26.4274 96.9687 23.5982 97.0273 20.6484 97.0273C20.6484 97.6993 20.6622 98.2437 20.6484 98.7916C20.6071 100.384 19.8524 101.145 18.2362 101.149C12.9465 101.162 7.65677 101.166 2.36707 101.149C0.774993 101.142 0.0168601 100.36 0.00996794 98.7434C-0.00726235 94.529 0.00307582 90.3181 0.00307582 86.1037C0.00307582 78.3228 0.00307582 70.5418 0.00307582 62.7575C0.00307582 60.4866 0.623366 59.8767 2.92189 59.8732C8.07719 59.8732 13.2359 59.8732 18.4877 59.8732V41.2962C16.7888 41.2962 15.0865 41.2962 13.3807 41.2962C11.7472 41.2962 10.1138 41.2893 8.47693 41.2962C7.47413 41.2996 6.72289 40.8999 6.34382 39.9454C5.97854 39.0287 6.29902 38.2706 6.96067 37.6124C7.14331 37.4298 7.32595 37.2472 7.50859 37.0645C19.4251 25.1554 31.3519 13.2462 43.2477 1.30603C44.1712 0.379076 45.1292 -0.00342288 46.4353 2.30614e-05C58.2173 0.0413743 69.9994 0.0344825 81.7849 0.003469C82.9531 0.003469 83.8146 0.368739 84.6314 1.18887C96.6271 13.2118 108.643 25.2174 120.653 37.2265C120.867 37.4402 121.191 37.6297 121.256 37.8847C121.435 38.5911 121.783 39.4422 121.539 40.0108C121.294 40.5828 120.463 41.017 119.798 41.2548C119.226 41.4581 118.527 41.2962 117.779 41.2962V61.9442C119.881 61.9442 122.011 61.9442 124.144 61.9442C124.661 61.9442 125.178 61.9304 125.691 61.9442C127.207 61.9925 127.99 62.7471 127.99 64.2771C128.003 76.4861 128.003 88.695 127.99 100.907C127.99 102.427 127.194 103.209 125.664 103.213C120.333 103.23 114.998 103.233 109.667 103.213C108.147 103.206 107.399 102.417 107.355 100.89C107.337 100.339 107.355 99.791 107.355 99.0949ZM89.8073 103.902C84.8657 100.053 80.0309 96.2865 75.1202 92.4615C76.0059 91.3278 76.8123 90.2974 77.6565 89.2154C83.3563 93.64 88.9389 97.975 94.5836 102.358C95.8621 100.652 97.0406 99.0742 98.2502 97.4615C97.9194 97.1858 97.6712 96.9584 97.4025 96.7516C86.9885 88.7881 76.5814 80.8176 66.1433 72.8851C65.6505 72.5095 64.9096 72.2924 64.2789 72.2889C58.8169 72.2441 53.3549 72.2683 47.8964 72.2579C46.1975 72.2545 45.4566 71.5067 45.4256 69.832C45.4152 69.291 45.4256 68.75 45.4256 68.2331H20.7139V92.8991C23.7395 92.8991 26.6962 92.9542 29.653 92.875C31.021 92.8371 32.11 93.2161 33.2093 94.0294C44.9845 102.751 56.7941 111.435 68.5934 120.125C68.9621 120.398 69.3481 120.642 69.7823 120.939C70.985 119.333 72.1153 117.83 73.28 116.276C68.3522 112.441 63.5105 108.675 58.5861 104.839C59.4545 103.73 60.2643 102.696 61.1224 101.597C66.8049 106.007 72.391 110.346 78.0494 114.736C79.2555 113.134 80.3824 111.631 81.5437 110.087C76.6089 106.245 71.7707 102.479 66.8497 98.6469C67.7284 97.527 68.5383 96.4932 69.3929 95.4077C75.0789 99.822 80.6615 104.157 86.313 108.547C87.5054 106.959 88.6115 105.487 89.8039 103.895L89.8073 103.902ZM114.691 37.1748C114.326 36.7751 114.188 36.6097 114.037 36.4581C103.488 25.91 92.9433 15.3586 82.3673 4.84157C81.9744 4.44873 81.2646 4.18339 80.6994 4.17995C71.0263 4.1386 61.3532 4.15238 51.6802 4.15238C51.3597 4.15238 51.0392 4.18684 50.5464 4.21785C50.8738 4.57968 51.0633 4.80022 51.2666 5.00353C61.753 15.4895 72.2393 25.979 82.7567 36.4374C83.1771 36.8543 83.9318 37.1438 84.5314 37.1438C94.077 37.1886 103.619 37.1748 113.165 37.1748H114.691ZM35.0977 63.9808C35.0977 60.5314 34.9461 57.1785 35.1598 53.8497C35.2735 52.0613 35.7146 50.1557 36.5382 48.5809C38.6816 44.4802 43.4854 42.5574 47.9791 43.6911C52.4142 44.8076 55.6293 48.8428 55.7258 53.4776C55.7706 55.5692 55.7327 57.6644 55.7327 59.8043H68.0834C68.1006 59.5217 68.1247 59.3115 68.1247 59.1048C68.1247 53.0434 68.1489 46.982 68.0903 40.924C68.0868 40.3795 67.7043 39.7214 67.2977 39.3113C60.3298 32.2954 53.3308 25.3104 46.3388 18.3221C46.0458 18.0292 45.7288 17.7638 45.4152 17.4778C45.1981 17.6639 45.0603 17.7638 44.9431 17.8844C37.7374 25.0865 30.5214 32.2816 23.3467 39.5146C22.9607 39.904 22.7402 40.6311 22.7367 41.2031C22.6954 48.381 22.7092 55.5589 22.7092 62.7368C22.7092 63.1434 22.7092 63.5535 22.7092 63.9842H35.0977V63.9808ZM76.3884 61.8029C76.3884 61.1758 76.3884 60.714 76.3884 60.2523C76.3884 56.1275 76.3781 51.9992 76.3953 47.8745C76.4022 46.2445 77.1465 45.4416 78.7179 45.4416C88.1739 45.4278 97.6333 45.4278 107.089 45.4416C108.657 45.4416 109.405 46.248 109.415 47.8779C109.433 50.8862 109.422 53.8945 109.415 56.9028C109.415 57.1888 109.353 57.4714 109.326 57.7126H105.235V49.6491H80.5547V63.202C82.0916 63.7223 83.6596 64.1669 85.1621 64.7768C87.7983 65.845 90.5034 66.1931 93.3361 66.1035C97.0716 65.9863 100.814 66.0759 104.556 66.0759H107.351C107.351 65.5349 107.351 65.1179 107.351 64.701C107.365 62.5989 108.016 61.9546 110.143 61.9477C111.245 61.9442 112.348 61.9477 113.454 61.9477V41.4064H72.2531C72.2531 47.5609 72.2462 53.6188 72.2738 59.6768C72.2738 59.9904 72.484 60.49 72.7252 60.5831C73.8693 61.0345 75.0582 61.3756 76.3849 61.8064L76.3884 61.8029ZM107.296 70.2007H105.804C100.387 70.2007 94.9695 70.2145 89.5523 70.1869C88.839 70.1835 88.0912 70.0663 87.4158 69.8458C81.9124 68.0366 76.4297 66.1758 70.9264 64.3667C70.2475 64.1427 69.5032 64.029 68.7898 64.0256C62.8557 63.998 56.9251 64.0118 50.9909 64.0118H49.6539V68.14C54.6541 68.14 59.5578 68.202 64.4547 68.1056C66.1157 68.0711 67.3873 68.5708 68.6796 69.5666C79.4381 77.8507 90.2415 86.0796 101.035 94.3154C101.396 94.5911 101.834 94.9219 102.248 94.9391C103.909 95.0115 105.576 94.9701 107.296 94.9701V70.2041V70.2007ZM16.4614 64.0807H4.21071V96.9377H16.458V64.0807H16.4614ZM111.573 66.1345V98.995H123.81V66.1345H111.573ZM45.5944 5.44461C34.9875 16.0512 24.3805 26.6544 13.8562 37.1748C15.2932 37.1748 16.9646 37.13 18.6325 37.1955C19.4836 37.2299 20.0591 36.9336 20.6484 36.3443C28.1677 28.7908 35.7111 21.2615 43.2511 13.7252C45.0465 11.9299 45.8081 11.9333 47.631 13.7562C55.171 21.2925 62.7075 28.8288 70.2475 36.3581C70.5439 36.6545 70.8919 37.1093 71.2296 37.1231C73.2525 37.1955 75.2788 37.1576 77.3154 37.1576C66.605 26.4476 56.005 15.8479 45.5979 5.44461H45.5944ZM39.2778 63.9325H45.4187C45.4187 63.4846 45.4187 63.1055 45.4187 62.7265C45.4359 60.5142 46.0596 59.8835 48.241 59.8767C49.3403 59.8767 50.4396 59.8767 51.5906 59.8767C51.5906 57.5162 51.6905 55.3246 51.5664 53.1433C51.3872 50.0247 48.6924 47.5643 45.5772 47.4954C42.4378 47.4265 39.5294 49.6939 39.3295 52.8228C39.0952 56.4927 39.2743 60.1868 39.2743 63.9291L39.2778 63.9325ZM42.0415 105.68C40.9595 107.124 39.9636 108.454 38.9056 109.867C40.2737 110.849 41.5798 111.786 42.9306 112.755C44.0161 111.304 45.0051 109.977 46.0252 108.609C44.6605 107.606 43.42 106.693 42.0415 105.68ZM60.3229 119.133C58.9169 118.099 57.6591 117.176 56.3427 116.204C55.302 117.593 54.3612 118.85 53.3584 120.187C54.7334 121.173 56.036 122.107 57.3834 123.072C58.3965 121.714 59.3132 120.487 60.3263 119.133H60.3229ZM35.0495 100.539C33.933 102.027 32.8991 103.406 31.8274 104.832C33.1231 105.759 34.2672 106.573 35.5147 107.465C36.5864 106.038 37.6202 104.664 38.6989 103.227C37.4445 102.303 36.3176 101.473 35.0495 100.539ZM49.3506 111.059C48.2823 112.486 47.3037 113.795 46.2871 115.153C47.5862 116.08 48.7303 116.893 49.9813 117.782C51.0013 116.425 51.9869 115.119 53.0034 113.768C51.7525 112.841 50.6222 112.003 49.3506 111.059Z" fill="#FB7125"/>
</svg>
