<svg width="97" height="96" viewBox="0 0 97 96" fill="none" xmlns="http://www.w3.org/2000/svg">
<g clip-path="url(#clip0_101_1793)">
<path d="M0 25.315C0.769701 24.4719 1.74702 24.3751 2.82308 24.3827C8.03122 24.4158 13.2419 24.3751 18.45 24.4209C19.2729 24.4286 19.4071 24.1789 19.4046 23.4199C19.3742 16.4326 19.3868 9.44283 19.3868 2.45559C19.3868 0.476345 19.8704 0 21.863 0C39.6371 0 57.4111 0 75.1851 0C77.1043 0 77.6106 0.49927 77.6106 2.40974C77.6106 6.18993 77.636 9.97012 77.5904 13.7503C77.5803 14.5221 77.8132 14.6673 78.5272 14.6648C83.9252 14.6342 89.3233 14.647 94.7238 14.6495C96.4708 14.6495 96.9975 15.1717 96.9975 16.909C96.9975 41.9718 96.9975 67.0321 96.9975 92.095C96.9975 92.3803 97.0101 92.6707 96.9646 92.9509C96.8228 93.8068 96.1316 94.3672 95.3062 94.329C94.5213 94.2933 93.8984 93.7176 93.7971 92.8923C93.7541 92.5484 93.7718 92.1943 93.7718 91.8454C93.7718 67.5773 93.7642 43.3092 93.7971 19.041C93.7971 18.0603 93.5465 17.8642 92.6173 17.8744C87.9459 17.9253 83.272 17.9279 78.6006 17.8744C77.7195 17.8642 77.5954 18.1419 77.598 18.9341C77.6182 43.7422 77.6157 68.5503 77.6157 93.3585C77.6157 95.6103 77.2182 96.0025 74.9496 96.0025C57.2693 96.0025 39.5915 96.0025 21.9111 96.0025C19.8527 96.0025 19.3894 95.544 19.3894 93.4986C19.3894 71.9306 19.3843 50.3626 19.4096 28.7947C19.4096 27.9056 19.245 27.6229 18.2956 27.6331C13.5913 27.6891 8.887 27.6789 4.18525 27.6382C3.38263 27.6305 3.21299 27.8572 3.21299 28.6342C3.23578 49.6927 3.23072 70.7537 3.23072 91.8122C3.23072 92.1307 3.23831 92.4491 3.22059 92.7649C3.17502 93.5087 2.78763 94.0309 2.09895 94.2576C1.44572 94.4716 0.858317 94.2806 0.392446 93.7533C0.270914 93.6157 0.134191 93.496 0.00253191 93.3661C0.00253191 70.6824 0.00253191 47.9987 0.00253191 25.3176L0 25.315ZM74.3698 47.9987C74.3698 33.418 74.3647 18.8373 74.385 4.25399C74.385 3.49999 74.2508 3.23252 73.4229 3.23252C56.7831 3.25799 40.1434 3.25799 23.5063 3.23507C22.7973 3.23507 22.5922 3.41083 22.61 4.12917C22.6581 6.16191 22.6277 8.19466 22.6277 10.2274C22.6277 37.3892 22.6327 64.5485 22.61 91.7104C22.61 92.5382 22.7872 92.7726 23.6404 92.7624C27.8384 92.7114 32.0388 92.7216 36.2367 92.7547C36.9558 92.7598 37.1938 92.607 37.1887 91.8301C37.1507 86.9393 37.1684 82.0459 37.171 77.1525C37.171 75.3465 37.6748 74.8498 39.4877 74.8498C45.4858 74.8498 51.4864 74.8498 57.4845 74.8498C59.348 74.8498 59.829 75.3389 59.829 77.2188C59.829 82.079 59.8442 86.9393 59.8138 91.7995C59.8088 92.5204 59.9582 92.7649 60.7329 92.7573C64.8371 92.714 68.9414 92.7445 73.0456 92.7344C74.5572 92.7293 74.3673 92.9662 74.3673 91.4505C74.3723 76.9641 74.3698 62.4801 74.3698 47.9936V47.9987ZM50.1217 85.3523C50.1217 87.5735 50.1318 89.7948 50.1141 92.016C50.109 92.5077 50.1875 92.7675 50.7749 92.7547C52.5093 92.7191 54.2436 92.7242 55.978 92.7547C56.4996 92.7624 56.6059 92.556 56.6034 92.0823C56.5907 87.6398 56.5857 83.1973 56.6084 78.7548C56.611 78.1715 56.3856 78.0874 55.8894 78.095C54.1854 78.1205 52.484 78.1282 50.78 78.0925C50.2306 78.0798 50.1014 78.2555 50.109 78.7879C50.1394 80.976 50.1217 83.1667 50.1217 85.3574V85.3523ZM40.4017 85.4185C40.4017 87.6092 40.4194 89.7973 40.389 91.988C40.3814 92.5484 40.503 92.7726 41.1157 92.7573C42.7867 92.7165 44.4578 92.7216 46.1289 92.7573C46.696 92.77 46.891 92.6146 46.8859 92.0186C46.8631 87.6067 46.8657 83.1973 46.8859 78.7854C46.8884 78.253 46.7618 78.0798 46.2124 78.0925C44.511 78.1282 42.8045 78.1333 41.103 78.0925C40.4903 78.0772 40.3764 78.2937 40.3865 78.8541C40.4169 81.0423 40.3992 83.2329 40.3992 85.4236L40.4017 85.4185Z" fill="white"/>
<path d="M80.849 38.9456C80.849 37.9318 80.8211 36.9154 80.8566 35.9042C80.892 34.8394 81.4288 34.2229 82.4846 34.1975C84.624 34.144 86.7686 34.144 88.908 34.2026C89.9461 34.2306 90.5133 34.8623 90.531 35.9271C90.569 38.0184 90.5715 40.1123 90.531 42.2036C90.5082 43.2862 89.8929 43.9052 88.7916 43.9307C86.7129 43.9791 84.6316 43.9816 82.5555 43.9281C81.4186 43.8976 80.8793 43.2582 80.854 42.0839C80.8287 41.0395 80.849 39.9926 80.849 38.9456C80.849 38.9456 80.8515 38.9456 80.854 38.9456H80.849ZM87.3155 39.1112C87.3155 37.9921 86.761 37.4325 85.652 37.4325C84.6055 37.4325 84.0822 37.9556 84.0822 39.0017C84.0822 40.1276 84.6342 40.6905 85.7381 40.6905C86.7914 40.6905 87.318 40.1641 87.318 39.1112H87.3155Z" fill="white"/>
<path d="M80.8464 78.09C80.8464 77.0762 80.8262 76.0623 80.8515 75.0485C80.8793 73.8844 81.4338 73.2425 82.5656 73.2145C84.6443 73.1661 86.723 73.1661 88.8017 73.2145C89.9258 73.2399 90.5208 73.8971 90.5386 75.0485C90.569 77.0762 90.569 79.1064 90.5386 81.134C90.5208 82.3287 89.9157 82.9375 88.7105 82.9579C86.6951 82.9935 84.6797 82.9935 82.6643 82.9579C81.411 82.9349 80.8869 82.3338 80.8464 81.0372C80.8464 80.9735 80.8464 80.9098 80.8464 80.8462C80.8464 79.9266 80.8464 79.007 80.8464 78.09ZM87.318 78.0849C87.318 76.9946 86.7787 76.4495 85.7001 76.4495C84.6215 76.4495 84.0822 76.9938 84.0822 78.0823C84.0822 79.1709 84.619 79.7118 85.6925 79.705C86.766 79.6982 87.3079 79.1582 87.318 78.0849Z" fill="white"/>
<path d="M85.6444 30.9089C84.6367 30.9089 83.6265 30.9344 82.6213 30.9013C81.4566 30.8631 80.8717 30.2925 80.854 29.1335C80.8262 27.0727 80.8262 25.0119 80.854 22.9537C80.8692 21.8023 81.4591 21.1782 82.6036 21.1553C84.6494 21.1146 86.7002 21.1146 88.746 21.1553C89.9157 21.1782 90.5234 21.8355 90.5386 23.0352C90.5639 25.0323 90.5639 27.0294 90.5386 29.0265C90.5234 30.2823 89.9233 30.8707 88.67 30.9038C87.6623 30.9319 86.6546 30.9089 85.6469 30.9089H85.6444ZM87.3155 26.0309C87.3155 24.9423 86.7753 24.398 85.695 24.398C84.6147 24.398 84.0763 24.9423 84.0797 26.0309C84.083 27.1194 84.6207 27.6594 85.6925 27.6509C86.7643 27.6424 87.3053 27.1024 87.3155 26.0309Z" fill="white"/>
<path d="M85.6418 69.9437C84.6341 69.9437 83.6264 69.9615 82.6187 69.9386C81.5022 69.9132 80.8818 69.3578 80.8616 68.2676C80.8236 66.1457 80.8261 64.0213 80.8616 61.8994C80.8793 60.8142 81.5072 60.2207 82.6061 60.2079C84.6544 60.1825 86.7002 60.1825 88.7485 60.2079C89.8752 60.2232 90.5132 60.8422 90.5335 61.9834C90.5689 64.0416 90.5715 66.1024 90.5335 68.1632C90.5132 69.3426 89.8701 69.9208 88.6649 69.9412C87.6572 69.959 86.6495 69.9437 85.6418 69.9437ZM87.3154 65.1166C87.3154 64.0043 86.7576 63.4481 85.6418 63.4481C84.6004 63.4481 84.0796 63.9754 84.0796 65.03C84.0796 66.1406 84.6341 66.6959 85.7431 66.6959C86.7913 66.6959 87.3154 66.1695 87.3154 65.1166Z" fill="white"/>
<path d="M80.8464 52.0057C80.8464 50.9918 80.8211 49.9755 80.854 48.9642C80.8894 47.8026 81.4667 47.2218 82.6263 47.2065C84.6746 47.1811 86.7204 47.1811 88.7687 47.2065C89.898 47.2218 90.5158 47.8332 90.536 48.9871C90.5689 51.0453 90.5715 53.1086 90.536 55.1668C90.5158 56.3004 89.8752 56.9245 88.7434 56.9423C86.6976 56.9729 84.6493 56.9754 82.601 56.9423C81.4667 56.9245 80.8869 56.3029 80.8565 55.1414C80.8287 54.097 80.8515 53.05 80.8515 52.0031L80.8464 52.0057ZM85.7912 50.4569C84.6502 50.4569 84.0796 51.0275 84.0796 52.1687C84.0796 53.1927 84.5852 53.7047 85.5963 53.7047C86.7424 53.7047 87.3154 53.1316 87.3154 51.9853C87.3154 50.9647 86.8074 50.4543 85.7912 50.4543V50.4569Z" fill="white"/>
<path d="M17.7968 72.4324C17.7968 74.3836 17.3081 74.86 15.3029 74.8574C13.3989 74.8574 12.9153 74.3403 12.9203 72.3203C12.9229 70.4277 13.447 69.9386 15.4649 69.9437C17.3005 69.9488 17.7993 70.4812 17.7993 72.435L17.7968 72.4324Z" fill="white"/>
<path d="M8.91485 69.9411C10.8467 69.9411 11.3328 70.4481 11.3328 72.4451C11.3328 74.3658 10.8189 74.8574 8.82371 74.8549C6.93743 74.8549 6.45384 74.3301 6.45637 72.3025C6.4589 70.4302 6.97288 69.9386 8.91739 69.9386L8.91485 69.9411Z" fill="white"/>
<path d="M15.3889 63.443C17.3385 63.443 17.7993 63.9219 17.7968 65.9444C17.7968 67.8396 17.2879 68.344 15.3763 68.344C13.414 68.344 12.9178 67.8498 12.9178 65.8833C12.9178 63.9295 13.4115 63.4404 15.3864 63.4404L15.3889 63.443Z" fill="white"/>
<path d="M6.45386 65.8502C6.45386 63.9117 6.94252 63.443 8.96045 63.4456C10.8417 63.4456 11.3328 63.955 11.3328 65.891C11.3328 67.8524 10.8366 68.3491 8.87183 68.3466C6.94505 68.3466 6.45386 67.8371 6.45386 65.8477V65.8502Z" fill="white"/>
<path d="M8.8364 81.3531C6.91468 81.3531 6.45134 80.8589 6.45387 78.8236C6.4564 76.9437 6.96531 76.4495 8.89969 76.4495C10.8391 76.4495 11.3329 76.9539 11.3329 78.9357C11.3329 80.8716 10.8315 81.3556 8.8364 81.3531Z" fill="white"/>
<path d="M15.4117 81.3531C13.4191 81.3531 12.9203 80.8691 12.9178 78.9331C12.9178 76.9539 13.4115 76.4495 15.351 76.4495C17.3031 76.4495 17.7968 76.9463 17.7942 78.9204C17.7942 80.8564 17.3081 81.3505 15.4092 81.3531H15.4117Z" fill="white"/>
<path d="M15.3965 87.8461C13.3938 87.8461 12.9203 87.3825 12.9178 85.4236C12.9178 83.4444 13.3963 82.9629 15.3687 82.9655C17.3309 82.9655 17.7968 83.4418 17.7968 85.444C17.7968 87.3672 17.3182 87.8461 15.3965 87.8461Z" fill="white"/>
<path d="M8.8921 56.95C10.8645 56.95 11.3329 57.4212 11.3329 59.4106C11.3329 61.3415 10.8265 61.8357 8.84399 61.8306C6.90708 61.828 6.45134 61.3466 6.45387 59.3138C6.45387 57.4237 6.94506 56.95 8.8921 56.95Z" fill="white"/>
<path d="M15.3915 56.95C17.3461 56.95 17.7993 57.4187 17.7968 59.4412C17.7968 61.344 17.3005 61.8306 15.3737 61.8306C13.4014 61.8306 12.9178 61.3466 12.9178 59.3775C12.9178 57.4161 13.3938 56.9474 15.3889 56.95H15.3915Z" fill="white"/>
<path d="M8.84906 87.8461C6.89948 87.8461 6.45134 87.3774 6.45387 85.3446C6.45387 83.4545 6.95519 82.9655 8.88703 82.9655C10.8543 82.9655 11.3329 83.4494 11.3329 85.4287C11.3329 87.3825 10.8569 87.8461 8.84906 87.8461Z" fill="white"/>
<path d="M15.3737 35.7997C13.3963 35.7997 12.9178 35.3208 12.9178 33.3492C12.9178 31.398 13.4191 30.9038 15.3915 30.9064C17.3157 30.9064 17.7993 31.4133 17.7968 33.4155C17.7968 35.3208 17.3081 35.7997 15.3737 35.8023V35.7997Z" fill="white"/>
<path d="M8.85412 35.7997C6.90202 35.7997 6.45134 35.3285 6.45387 33.2983C6.45387 31.4005 6.95519 30.9064 8.88197 30.9064C10.8442 30.9064 11.3329 31.398 11.3329 33.3696C11.3329 35.3234 10.8467 35.7997 8.85665 35.7997H8.85412Z" fill="white"/>
<path d="M8.90981 42.2953C6.91213 42.2953 6.45386 41.8419 6.45386 39.8601C6.45386 37.891 6.92732 37.4249 8.91994 37.4274C10.8695 37.4274 11.3354 37.9114 11.3328 39.9162C11.3328 41.819 10.8467 42.2928 8.90981 42.2953Z" fill="white"/>
<path d="M15.2978 42.2953C13.3963 42.2953 12.9178 41.8063 12.9178 39.8754C12.9178 37.9038 13.3938 37.4275 15.3737 37.43C17.3714 37.43 17.8018 37.8885 17.7968 40.0002C17.7917 41.8266 17.2803 42.2979 15.2978 42.2979V42.2953Z" fill="white"/>
<path d="M15.4294 50.4543C17.3638 50.4543 17.7993 50.9205 17.7968 52.9762C17.7942 54.8408 17.2955 55.312 15.3358 55.312C13.3811 55.312 12.9178 54.8331 12.9178 52.8335C12.9178 50.9027 13.3938 50.4543 15.4294 50.4543Z" fill="white"/>
<path d="M8.96802 50.4543C10.9024 50.4543 11.3379 50.923 11.3328 52.9813C11.3278 54.8382 10.8264 55.312 8.86422 55.312C6.90705 55.312 6.45384 54.8433 6.45637 52.8284C6.45637 50.9001 6.93237 50.4543 8.97056 50.4543H8.96802Z" fill="white"/>
<path d="M8.89968 48.8011C6.90707 48.8011 6.45386 48.3477 6.45386 46.3583C6.45386 44.3994 6.92226 43.9434 8.92753 43.9434C10.8771 43.9434 11.3328 44.4198 11.3303 46.4321C11.3278 48.3248 10.8417 48.7986 8.89968 48.7986V48.8011Z" fill="white"/>
<path d="M15.394 43.946C17.3512 43.946 17.7994 44.4121 17.7968 46.4321C17.7968 48.3554 17.3158 48.8062 15.2776 48.8011C13.3508 48.7986 12.9128 48.3273 12.9178 46.2691C12.9229 44.4121 13.4191 43.946 15.3915 43.946H15.394Z" fill="white"/>
<path d="M42.0449 13.0269C42.0449 11.5341 42.0373 10.044 42.0449 8.55126C42.0525 7.15534 42.6045 6.53125 43.9565 6.51851C46.9847 6.49049 50.0128 6.49049 53.041 6.51851C54.3627 6.53125 54.945 7.1477 54.9501 8.45701C54.9627 11.5036 54.9627 14.5501 54.9501 17.5967C54.945 18.9035 54.3576 19.5276 53.041 19.5377C50.0128 19.5632 46.9847 19.5632 43.9565 19.5377C42.6399 19.525 42.0601 18.9035 42.0474 17.5967C42.0348 16.0734 42.0449 14.5501 42.0449 13.0269ZM48.4988 16.2899C49.3799 16.2899 50.261 16.2696 51.1421 16.2976C51.5902 16.3129 51.7421 16.1728 51.7345 15.7092C51.7117 13.9057 51.7143 12.0996 51.7345 10.2962C51.7396 9.8784 51.5927 9.75613 51.1902 9.75868C49.3976 9.77396 47.605 9.77396 45.8099 9.75868C45.4073 9.75613 45.2604 9.8784 45.2655 10.2962C45.2832 12.0996 45.2858 13.9057 45.2655 15.7092C45.2604 16.1728 45.4098 16.3129 45.8605 16.2976C46.7416 16.267 47.6227 16.2899 48.5038 16.2899H48.4988Z" fill="white"/>
<path d="M54.9551 61.7949C54.9551 63.3488 54.9678 64.9052 54.9501 66.459C54.9374 67.6639 54.3627 68.3134 53.1651 68.3287C50.0432 68.3669 46.9189 68.3695 43.797 68.3287C42.6121 68.3134 42.0525 67.6486 42.0475 66.4233C42.0348 63.3462 42.0348 60.2665 42.0475 57.1894C42.0525 55.982 42.6273 55.3375 43.8325 55.3222C46.9543 55.284 50.0787 55.2815 53.2005 55.3222C54.3905 55.3375 54.9374 55.9947 54.9501 57.2225C54.9653 58.7458 54.9526 60.2691 54.9526 61.7924L54.9551 61.7949ZM51.7269 61.907C51.7269 60.99 51.7067 60.0704 51.7345 59.1534C51.7497 58.7025 51.613 58.5496 51.1522 58.5547C49.39 58.5777 47.6278 58.5879 45.8681 58.5497C45.3162 58.5395 45.2605 58.7738 45.2655 59.2247C45.2858 60.9645 45.2883 62.7068 45.2655 64.4466C45.2579 64.9357 45.3921 65.1038 45.896 65.0937C47.6253 65.0656 49.3571 65.058 51.0864 65.0962C51.6712 65.1089 51.7548 64.8644 51.7371 64.3702C51.7067 63.5474 51.7295 62.7247 51.7295 61.9019L51.7269 61.907Z" fill="white"/>
<path d="M32.2768 19.548C30.8564 19.548 29.436 19.5556 28.0181 19.548C26.4635 19.5352 25.8837 18.9799 25.8761 17.449C25.8609 14.4967 25.8609 11.5444 25.8761 8.59204C25.8837 7.10442 26.461 6.52618 27.9447 6.51854C30.8792 6.50326 33.8137 6.50071 36.7482 6.51854C38.2116 6.52618 38.8091 7.14263 38.8142 8.61242C38.8243 11.5647 38.8269 14.5171 38.8142 17.4694C38.8091 18.9315 38.1989 19.5301 36.7279 19.548C35.2442 19.5632 33.763 19.5505 32.2793 19.5505L32.2768 19.548ZM35.581 13.0473C35.581 12.1583 35.5632 11.2718 35.5885 10.3828C35.6012 9.94465 35.4822 9.75615 35.0138 9.76125C33.2491 9.78163 31.4843 9.77908 29.717 9.76125C29.2816 9.75615 29.0993 9.87588 29.1043 10.3471C29.1246 12.1226 29.122 13.9006 29.1043 15.6761C29.1018 16.1015 29.2005 16.3053 29.6791 16.3002C31.4438 16.2772 33.2111 16.2747 34.9758 16.3002C35.5075 16.3078 35.6012 16.076 35.5885 15.6149C35.5632 14.759 35.581 13.9032 35.581 13.0473Z" fill="white"/>
<path d="M64.6979 19.5479C63.2142 19.5479 61.733 19.5632 60.2493 19.5428C58.7909 19.525 58.1909 18.9162 58.1858 17.4413C58.1757 14.489 58.1732 11.5367 58.1858 8.58437C58.1909 7.12731 58.7985 6.52105 60.2746 6.51341C63.2091 6.49813 66.1436 6.49558 69.0781 6.51341C70.5517 6.52105 71.1163 7.10693 71.1239 8.60984C71.1365 11.5622 71.1391 14.5145 71.1239 17.4668C71.1163 18.9544 70.5365 19.525 69.0528 19.5403C67.602 19.5556 66.1512 19.5428 64.6979 19.5428V19.5479ZM67.8881 13.0345C67.8881 12.1455 67.8704 11.259 67.8957 10.37C67.9084 9.92424 67.7666 9.75612 67.3058 9.76122C65.541 9.7816 63.7763 9.77905 62.009 9.76122C61.5685 9.75612 61.4039 9.89368 61.4089 10.3598C61.4317 12.1353 61.4292 13.9133 61.4089 15.6888C61.4039 16.1397 61.5431 16.3027 61.9989 16.2976C63.7636 16.2798 65.5284 16.2772 67.2956 16.2976C67.7488 16.3027 67.9058 16.1498 67.8932 15.6964C67.8678 14.81 67.8856 13.921 67.8856 13.0319L67.8881 13.0345Z" fill="white"/>
<path d="M71.1289 61.8586C71.1289 63.3182 71.1416 64.7803 71.1264 66.24C71.1112 67.7454 70.5516 68.3313 69.0806 68.3389C66.1461 68.3542 63.2116 68.3542 60.2772 68.3389C58.8036 68.3313 58.1934 67.725 58.1883 66.2654C58.1757 63.3131 58.1757 60.3608 58.1883 57.4085C58.1934 55.9336 58.7884 55.3197 60.2518 55.3095C63.1863 55.2917 66.1208 55.2942 69.0553 55.3095C70.5415 55.3171 71.1112 55.8954 71.1264 57.3804C71.1441 58.8732 71.1289 60.3633 71.1289 61.856V61.8586ZM64.7814 58.5675C63.8978 58.5675 63.0167 58.5879 62.133 58.5598C61.6418 58.5446 61.3937 58.6388 61.4064 59.2247C61.4444 60.9696 61.4368 62.7145 61.4089 64.4568C61.4013 64.9714 61.5861 65.1039 62.0672 65.0962C63.8016 65.0733 65.5359 65.0707 67.2678 65.0962C67.7893 65.1039 67.9033 64.9026 67.8957 64.4263C67.8754 62.6814 67.8704 60.9365 67.8957 59.1941C67.9033 58.6821 67.7184 58.5369 67.2374 58.5547C66.4196 58.5853 65.5992 58.5624 64.7789 58.5624L64.7814 58.5675Z" fill="white"/>
<path d="M38.8167 61.8866C38.8167 63.3156 38.8218 64.7447 38.8167 66.1711C38.8091 67.7174 38.2293 68.3338 36.7254 68.3414C33.7909 68.3567 30.8564 68.3567 27.9219 68.3414C26.4534 68.3338 25.8837 67.7454 25.8761 66.2425C25.8635 63.2901 25.8609 60.3378 25.8761 57.3855C25.8837 55.9004 26.461 55.3222 27.9472 55.3146C30.8817 55.2993 33.8162 55.2967 36.7507 55.3146C38.2141 55.3222 38.8015 55.9387 38.8142 57.411C38.8268 58.9037 38.8167 60.3939 38.8167 61.8866ZM35.5809 61.8713C35.5809 60.9823 35.5683 60.0958 35.586 59.2068C35.5961 58.7993 35.5328 58.5547 35.0366 58.5598C33.2389 58.5802 31.4438 58.5776 29.6461 58.5598C29.2284 58.5573 29.1018 58.7152 29.1068 59.1202C29.122 60.9288 29.122 62.7348 29.1068 64.5434C29.1043 64.9535 29.2486 65.0987 29.6563 65.0936C31.4539 65.0784 33.2491 65.0784 35.0467 65.0936C35.4594 65.0962 35.5961 64.9383 35.586 64.5332C35.5657 63.6468 35.5784 62.7578 35.5809 61.8688V61.8713Z" fill="white"/>
<path d="M32.2667 52.0515C30.783 52.0515 29.3018 52.0668 27.8181 52.0489C26.4787 52.0337 25.8913 51.4834 25.8787 50.1563C25.8533 47.0766 25.8508 43.9995 25.8787 40.9198C25.8913 39.6563 26.5091 39.0628 27.7649 39.0552C30.826 39.0373 33.8846 39.0348 36.9456 39.0552C38.1382 39.0628 38.7889 39.6793 38.8015 40.8714C38.8344 44.0122 38.837 47.1556 38.8015 50.2964C38.7889 51.4427 38.1508 52.0235 36.9988 52.0438C35.4214 52.0719 33.844 52.0515 32.2667 52.0515ZM35.5809 45.5864C35.5809 44.6974 35.5531 43.8059 35.5911 42.9194C35.6138 42.3998 35.4189 42.2801 34.9378 42.2851C33.2009 42.3081 31.464 42.303 29.7297 42.2877C29.3195 42.2851 29.0967 42.3437 29.1043 42.843C29.1296 44.6541 29.1271 46.4653 29.1043 48.2738C29.0992 48.6992 29.2486 48.8113 29.6512 48.8062C31.4514 48.7884 33.249 48.7909 35.0492 48.8062C35.4594 48.8088 35.6012 48.6687 35.5885 48.256C35.5632 47.367 35.5809 46.478 35.5809 45.589V45.5864Z" fill="white"/>
<path d="M32.2793 35.7997C30.7956 35.7997 29.3145 35.8099 27.8308 35.7972C26.5066 35.7845 25.8913 35.2215 25.8787 33.9046C25.8508 30.8249 25.8533 27.7477 25.8787 24.668C25.8913 23.3842 26.4838 22.8136 27.7523 22.806C30.8133 22.7881 33.8719 22.7881 36.933 22.806C38.1761 22.8136 38.7965 23.4199 38.8066 24.6808C38.8319 27.7605 38.8319 30.8376 38.8066 33.9173C38.7965 35.168 38.1559 35.7768 36.9178 35.7921C35.3733 35.8099 33.8263 35.7972 32.2793 35.7972V35.7997ZM32.2793 32.5519C33.163 32.5519 34.0466 32.5316 34.9302 32.5596C35.3986 32.5749 35.6012 32.4679 35.5911 31.938C35.5607 30.1931 35.5632 28.4457 35.5911 26.6982C35.5987 26.2041 35.4645 26.0385 34.9581 26.0461C33.2212 26.0742 31.4868 26.0716 29.7499 26.0461C29.2765 26.0385 29.0916 26.148 29.1018 26.6677C29.1347 28.4126 29.1398 30.1626 29.1018 31.9075C29.0891 32.4959 29.3322 32.5774 29.8208 32.557C30.6412 32.5265 31.4615 32.5494 32.2819 32.5494L32.2793 32.5519Z" fill="white"/>
<path d="M64.6371 22.8009C66.1841 22.8009 67.7286 22.783 69.2756 22.806C70.4959 22.8238 71.1036 23.3816 71.1163 24.6018C71.1492 27.712 71.1467 30.8223 71.1188 33.9325C71.1087 35.2011 70.4884 35.787 69.2351 35.7946C66.174 35.8099 63.1154 35.8099 60.0544 35.7946C58.8618 35.787 58.2086 35.1782 58.1959 33.986C58.163 30.8452 58.1605 27.7019 58.1959 24.5585C58.2086 23.4097 58.8517 22.8263 59.9987 22.8085C61.5431 22.783 63.0901 22.8034 64.6371 22.8009ZM64.6979 26.0563C63.8142 26.0563 62.9281 26.0818 62.047 26.0461C61.5456 26.0257 61.4013 26.1939 61.4115 26.6931C61.4393 28.4406 61.4317 30.1855 61.4165 31.9329C61.4115 32.3507 61.4798 32.5672 61.9735 32.5596C63.7712 32.5341 65.5714 32.5366 67.3716 32.5596C67.7969 32.5646 67.9007 32.4067 67.8982 32.0093C67.883 30.1982 67.878 28.3896 67.8982 26.5785C67.9033 26.1506 67.7514 26.0385 67.3513 26.0487C66.4677 26.0741 65.584 26.0563 64.7004 26.0563H64.6979Z" fill="white"/>
<path d="M64.6067 52.0515C63.123 52.0515 61.6419 52.0642 60.1582 52.049C58.796 52.0337 58.1959 51.4427 58.1883 50.0748C58.1706 47.0588 58.1706 44.0453 58.1883 41.0293C58.1959 39.6716 58.8238 39.0577 60.1784 39.0526C63.1762 39.0399 66.1715 39.0399 69.1692 39.0526C70.4909 39.0577 71.1061 39.6385 71.1188 40.9529C71.1467 44.0326 71.1467 47.1097 71.1188 50.1894C71.1087 51.4682 70.5162 52.0311 69.2452 52.049C67.7007 52.0719 66.1537 52.0541 64.6093 52.0541L64.6067 52.0515ZM67.8881 45.6119C67.8881 44.7535 67.8577 43.8951 67.8982 43.0392C67.9261 42.4813 67.802 42.2597 67.1817 42.2775C65.5106 42.3234 63.8345 42.3132 62.1634 42.2826C61.609 42.2724 61.3861 42.3871 61.4039 43.0061C61.4469 44.6873 61.4444 46.3736 61.4039 48.0548C61.3912 48.6305 61.5355 48.8266 62.1331 48.8113C63.8041 48.7706 65.4802 48.7757 67.1513 48.8113C67.7109 48.8241 67.9438 48.7094 67.9007 48.0905C67.8425 47.2677 67.8856 46.4398 67.8856 45.6145L67.8881 45.6119Z" fill="white"/>
<path d="M48.4911 22.8009C50.0052 22.8009 51.5193 22.7881 53.0334 22.8059C54.3652 22.8212 54.945 23.3918 54.95 24.7139C54.9627 27.7604 54.9627 30.807 54.95 33.8561C54.945 35.1833 54.355 35.7895 53.0511 35.7972C50.0229 35.8125 46.9948 35.8099 43.9666 35.7972C42.6526 35.7921 42.055 35.1935 42.05 33.874C42.0373 30.8274 42.0373 27.7808 42.05 24.7317C42.055 23.402 42.6298 22.8212 43.9489 22.8059C45.463 22.7881 46.9771 22.8009 48.4911 22.8009ZM48.5798 26.0588C47.6657 26.0588 46.7543 26.0818 45.8402 26.0487C45.3794 26.0308 45.2579 26.1837 45.263 26.6345C45.2857 28.4075 45.2933 30.1829 45.2604 31.9558C45.2503 32.4933 45.4579 32.5672 45.9162 32.5621C47.648 32.5392 49.3798 32.5341 51.1091 32.5646C51.6155 32.5748 51.7421 32.4144 51.7345 31.9253C51.7067 30.216 51.6889 28.5043 51.7421 26.795C51.7649 26.12 51.5092 26.0155 50.9395 26.0461C50.1546 26.0894 49.3672 26.0563 48.5798 26.0563V26.0588Z" fill="white"/>
<path d="M42.0449 45.426C42.0449 43.9333 42.0322 42.4431 42.05 40.9504C42.0626 39.6971 42.6627 39.0628 43.9033 39.0526C46.9619 39.0323 50.023 39.0323 53.0815 39.0526C54.3323 39.0603 54.945 39.6844 54.9501 40.9325C54.9652 44.0097 54.9652 47.0894 54.9501 50.1665C54.945 51.4376 54.3652 52.0337 53.0992 52.0439C50.0407 52.0642 46.9796 52.0642 43.9211 52.0439C42.6146 52.0362 42.0601 51.4325 42.05 50.0901C42.0373 48.5362 42.0474 46.9798 42.0474 45.426H42.0449ZM51.7244 45.5202C51.7244 44.6643 51.7067 43.8084 51.732 42.9551C51.7447 42.5093 51.689 42.2699 51.1395 42.2826C49.3773 42.3183 47.6126 42.3106 45.8504 42.2852C45.3997 42.2801 45.2579 42.41 45.263 42.8685C45.2858 44.6414 45.2933 46.4169 45.2604 48.1898C45.2503 48.712 45.4301 48.8139 45.9061 48.8062C47.6379 48.7808 49.3697 48.7782 51.1016 48.8062C51.5902 48.8139 51.7624 48.6891 51.7371 48.1796C51.6965 47.2957 51.7244 46.4067 51.7244 45.5202Z" fill="white"/>
</g>
<defs>
<clipPath id="clip0_101_1793">
<rect width="97" height="96" fill="white"/>
</clipPath>
</defs>
</svg>
