<svg width="116" height="116" viewBox="0 0 116 116" fill="none" xmlns="http://www.w3.org/2000/svg">
<g clip-path="url(#clip0_228_630)">
<path d="M23.047 46.7231C21.4105 43.2988 21.2168 39.7518 21.2491 36.1404C21.3104 29.3757 21.2588 22.611 21.2684 15.8431C21.2814 6.80633 28.0437 0.0255144 37.0592 -0.000305009C39.4349 -0.00675985 41.8106 -0.000305009 44.1863 -0.000305009C46.9042 -0.000305009 49.0798 1.06152 50.7583 3.21743C51.023 3.55631 51.5846 3.82742 52.0204 3.84033C56.7331 4.00815 59.9222 7.23557 59.9287 11.9573C59.9416 20.8166 59.9286 29.6758 59.9351 38.5351C59.9351 41.3526 59.338 44.0379 58.1759 46.7328C60.3063 47.9785 62.3947 49.2372 64.5381 50.4023C64.7801 50.5347 65.4031 50.2377 65.6969 49.9731C69.7607 46.2422 73.815 42.4984 77.824 38.7126C79.2507 37.3668 80.8485 36.7084 82.8207 36.7181C91.7619 36.7536 100.7 36.731 109.641 36.7342C113.644 36.7342 115.997 39.1031 115.997 43.1374C115.997 65.2872 115.997 87.437 115.997 109.584C115.997 113.663 113.64 115.996 109.525 115.996C73.9247 115.996 38.3277 115.996 2.72755 115.996C0.581017 115.996 0 115.419 0 113.285C0 97.584 0.00645574 81.8762 0 66.1715C0 62.1502 1.73337 59.1583 5.20656 57.1412C10.7714 53.9073 16.3266 50.6573 21.885 47.4105C22.2303 47.2104 22.5725 47.0039 23.0502 46.7231H23.047ZM69.6575 56.0665C72.0332 56.0665 74.3185 56.0826 76.6071 56.06C78.0435 56.0439 78.773 55.3274 78.7827 53.9009C78.802 50.5185 78.7891 47.1362 78.7827 43.7539C78.7827 43.6215 78.702 43.4892 78.6277 43.2697C73.3857 48.1399 68.234 52.9455 63.05 57.7157C62.214 58.487 61.846 59.3068 61.8492 60.4525C61.8815 70.719 61.8686 80.9854 61.8686 91.2518V92.6331C62.9177 91.8812 63.7569 91.2776 64.5994 90.6806C66.7427 89.1637 68.8731 89.041 70.7775 90.3159C72.6239 91.552 73.3534 93.5852 72.8498 96.0574C72.4915 97.8228 72.1526 99.5882 71.8104 101.331C74.8963 103.248 78.1306 104.126 81.6684 103.642C83.3404 103.413 85.0028 103.093 86.6683 102.812C88.8697 102.445 90.942 103.623 91.6812 105.665C92.4172 107.702 91.5618 109.935 89.6057 111.046C89.0634 111.352 88.505 111.63 87.953 111.92C87.9692 111.991 87.9853 112.062 88.0014 112.133H89.0215C95.8258 112.133 102.63 112.133 109.435 112.133C111.552 112.133 112.133 111.543 112.133 109.393C112.133 87.3692 112.133 65.3453 112.133 43.3246C112.133 41.1848 111.552 40.6039 109.418 40.6039C100.923 40.6039 92.4269 40.6039 83.9343 40.6039C83.5438 40.6039 83.1532 40.6362 82.6593 40.6588C82.6593 41.1687 82.6593 41.6012 82.6593 42.0336C82.6593 46.0582 82.6787 50.0861 82.6496 54.1106C82.627 57.0766 80.5515 59.6037 77.6529 59.8361C75.0254 60.0491 72.3656 59.8813 69.6639 59.8813V56.0632L69.6575 56.0665ZM52.1592 102.225C51.9074 102.144 51.7202 102.06 51.5265 102.028C43.644 100.637 35.7648 99.2203 27.8727 97.8777C23.1955 97.0838 19.6481 93.6627 19.406 89.1443C19.1994 85.2908 19.364 81.4146 19.3737 77.5514C19.3737 77.4933 19.4737 77.432 19.4963 77.4062H23.1955C23.1955 81.0112 23.1826 84.5485 23.1987 88.0857C23.2148 91.1711 25.1483 93.4497 28.1761 93.9983C29.9191 94.3146 31.659 94.6277 33.402 94.9278C35.1192 95.2248 36.8397 95.5023 38.5601 95.7896V61.7112C37.2432 63.354 36.0618 64.8321 34.8771 66.3038C33.4537 68.0725 32.5208 68.1273 30.9359 66.5459C27.0044 62.6181 23.0567 58.7033 19.1606 54.7432C18.528 54.101 18.089 54.0655 17.3337 54.5205C13.9896 56.5312 10.6165 58.4967 7.2272 60.4299C4.89991 61.7564 3.83148 63.6929 3.84439 66.3716C3.88636 75.0308 3.85408 83.69 3.86053 92.3491C3.87022 103.664 12.3272 112.12 23.6474 112.133C32.708 112.143 41.7719 112.133 50.8325 112.133H52.1495V102.225H52.1592ZM25.1806 21.2684C25.158 21.6137 25.1387 21.8074 25.1387 22.0043C25.1387 27.6813 25.1225 33.3583 25.158 39.0354C25.1645 40.0326 25.3001 41.0493 25.5228 42.0207C27.2626 49.6536 34.4349 54.882 42.0204 54.0848C50.0836 53.236 56.0262 46.7037 56.0681 38.6158C56.0907 34.4298 56.0714 30.2406 56.0714 26.0547C56.0714 24.4926 56.0714 22.9273 56.0714 21.3846C51.7815 20.5164 51.3038 20.2744 48.1469 17.3761C44.861 20.652 40.7551 21.4459 36.2845 21.2974C32.6306 21.1748 28.9669 21.2716 25.1838 21.2716L25.1806 21.2684ZM42.5692 96.5286C44.932 96.945 47.2367 97.158 49.4252 97.7841C52.3754 98.6265 54.8674 98.294 57.1172 96.0833C57.724 95.4894 58.0178 95.0182 58.0145 94.1823C57.9887 82.8282 57.9984 71.4742 57.9984 60.1201C57.9984 59.7812 57.9984 59.4391 57.9984 58.8808C57.5271 59.3229 57.2334 59.5811 56.959 59.8555C54.6801 62.1308 52.4077 64.4158 50.1224 66.6847C48.7021 68.0951 47.695 68.0241 46.4265 66.4459C45.442 65.2227 44.4672 63.993 43.4827 62.7698C43.2309 62.46 42.963 62.1631 42.5692 61.708V96.5319V96.5286ZM56.0681 112.075C56.3812 112.104 56.5362 112.13 56.6911 112.13C63.1307 112.13 69.5735 112.211 76.0099 112.072C77.7304 112.036 79.5089 111.523 81.1293 110.891C83.2565 110.064 85.261 108.922 87.2978 107.87C87.5947 107.715 87.769 107.318 87.9982 107.034C87.627 106.924 87.2397 106.682 86.8846 106.724C84.4895 106.992 82.1106 107.463 79.709 107.599C75.5967 107.831 72.0655 105.979 68.589 104.087C67.7046 103.606 67.5464 102.732 67.7498 101.77C68.2114 99.5656 68.6955 97.3678 69.0571 95.1473C69.1378 94.6503 68.9183 93.8467 68.5535 93.6046C68.2049 93.3722 67.3689 93.5046 66.9622 93.7886C63.489 96.193 60.061 98.6587 56.6395 101.137C56.3619 101.338 56.0939 101.764 56.0875 102.089C56.0488 105.385 56.0617 108.68 56.0617 112.075H56.0681ZM25.1903 17.402C25.6551 17.402 26.0489 17.402 26.4427 17.402C30.8649 17.3858 35.3065 17.5956 39.7093 17.289C44.5834 16.9501 48.2534 12.7416 48.3245 7.99079C48.36 5.63155 46.7363 3.91456 44.3897 3.8726C42.7402 3.84355 41.0908 3.82096 39.4446 3.87906C37.6047 3.9436 35.7067 3.85646 33.9378 4.26957C28.1309 5.62832 24.7965 10.6792 25.1903 17.3987V17.402ZM56.2037 50.0731C53.205 54.0622 49.2767 56.528 44.3574 57.6673C45.7906 59.4585 47.1108 61.1077 48.3406 62.644C51.959 59.0196 55.5291 55.4468 59.154 51.816C58.2857 51.3028 57.3302 50.738 56.2037 50.0764V50.0731ZM22.0076 51.8256C25.6551 55.4791 29.2284 59.0518 32.8404 62.6698C34.1089 61.0819 35.442 59.4133 36.8526 57.6479C31.8462 56.528 27.9921 54.0074 24.987 50.0957C23.9476 50.6993 22.9792 51.2608 22.0076 51.8256ZM56.0649 17.3794C56.0649 16.863 56.0649 16.466 56.0649 16.069C56.0584 14.465 56.1133 12.8545 56.0326 11.2537C55.9325 9.27208 53.9119 7.53895 52.5433 7.79715C51.9687 9.78524 51.4038 11.6475 50.9132 13.5323C50.8196 13.8873 50.9132 14.4134 51.1263 14.7071C52.298 16.3143 53.9087 17.1922 56.0649 17.3794ZM3.94769 106.866V112.069H9.07677C7.51448 110.484 5.54225 108.483 3.94769 106.866Z" fill="#FB7125"/>
<path d="M99.0181 75.4861V79.2041H81.2971V75.4861H99.0181Z" fill="#FB7125"/>
<path d="M75.4547 71.4712V67.7532H89.3313V71.4712H75.4547Z" fill="#FB7125"/>
<path d="M75.4612 83.1804H88.8536V86.9339H75.4612V83.1804Z" fill="#FB7125"/>
<path d="M106.278 83.2158V86.937H92.8981V83.2158H106.278Z" fill="#FB7125"/>
<path d="M106.278 94.8152V98.5364H92.8981V94.8152H106.278Z" fill="#FB7125"/>
<path d="M106.278 67.75V71.4712H93.3759V67.75H106.278Z" fill="#FB7125"/>
<path d="M106.274 102.532V106.247H94.8123V102.532H106.274Z" fill="#FB7125"/>
<path d="M77.3042 75.5022V79.1782H68.2242V75.5022H77.3042Z" fill="#FB7125"/>
<path d="M98.6534 50.1831V46.4651H106.236V50.1831H98.6534Z" fill="#FB7125"/>
<path d="M90.9324 54.1885H98.5114V57.9258H90.9324V54.1885Z" fill="#FB7125"/>
<path d="M90.8936 50.1669V46.4941H94.654V50.1669H90.8936Z" fill="#FB7125"/>
<path d="M71.9137 71.4874H68.2146V67.7307H71.9137V71.4874Z" fill="#FB7125"/>
<path d="M85.1222 98.5333V94.8218H88.8536V98.5333H85.1222Z" fill="#FB7125"/>
<path d="M106.236 57.9579H102.54V54.198H106.236V57.9579Z" fill="#FB7125"/>
<path d="M106.284 75.4604V79.1881H103.014V75.4604H106.284Z" fill="#FB7125"/>
<path d="M36.7881 46.3975V42.5279C37.4304 42.5279 38.0211 42.5537 38.6118 42.5214C39.8223 42.4536 40.5486 41.7468 40.5905 40.5301C40.6325 39.3263 40.6002 38.1192 40.6002 36.8218H44.3574C44.3574 38.4419 44.5608 40.1041 44.3123 41.6952C43.8797 44.4805 41.5201 46.3233 38.6893 46.3911C38.0921 46.404 37.4918 46.3911 36.7913 46.3911L36.7881 46.3975Z" fill="#FB7125"/>
<path d="M29.0896 25.1868H36.6686V28.9048H29.0896V25.1868Z" fill="#FB7125"/>
<path d="M52.1204 28.9436H44.5284V25.2256H52.1204V28.9436Z" fill="#FB7125"/>
<path d="M34.7899 32.9165C34.7609 33.9622 33.8603 34.8207 32.8177 34.7917C31.7687 34.7626 30.9165 33.8654 30.9455 32.8165C30.9746 31.7643 31.8687 30.9155 32.9178 30.9446C33.9668 30.9736 34.819 31.8708 34.7932 32.9165H34.7899Z" fill="#FB7125"/>
<path d="M48.2922 34.7916C47.2431 34.7658 46.3878 33.8718 46.4103 32.8261C46.4329 31.774 47.3271 30.9219 48.3761 30.9445C49.4252 30.9671 50.2806 31.8643 50.258 32.91C50.2354 33.9557 49.3348 34.8174 48.2922 34.7916Z" fill="#FB7125"/>
</g>
<defs>
<clipPath id="clip0_228_630">
<rect width="116" height="116" fill="white"/>
</clipPath>
</defs>
</svg>
