<svg width="19" height="12" viewBox="0 0 19 12" fill="none" xmlns="http://www.w3.org/2000/svg">
<path d="M5.31875 6.3322C6.60936 6.3322 7.65946 5.28217 7.65946 3.99165C7.65946 2.70113 6.60936 1.6511 5.31875 1.6511C4.02814 1.6511 2.97804 2.70113 2.97804 3.99165C2.97804 5.28217 4.02814 6.3322 5.31875 6.3322ZM15.6179 2.58732H9.06389C8.80524 2.58732 8.59575 2.7968 8.59575 3.05543V7.26842H2.04176V1.18298C2.04176 0.924354 1.83226 0.714874 1.57362 0.714874H0.637331C0.378683 0.714874 0.169189 0.924354 0.169189 1.18298V11.4814C0.169189 11.74 0.378683 11.9495 0.637331 11.9495H1.57362C1.83226 11.9495 2.04176 11.74 2.04176 11.4814V10.0771H17.0223V11.4814C17.0223 11.74 17.2318 11.9495 17.4904 11.9495H18.4267C18.6854 11.9495 18.8949 11.74 18.8949 11.4814V5.86409C18.8949 4.05426 17.4278 2.58732 15.6179 2.58732Z" fill="#FB7125"/>
</svg>
