<svg width="38" height="38" viewBox="0 0 38 38" fill="none" xmlns="http://www.w3.org/2000/svg">
<path d="M19.263 9.94274C14.0132 9.94274 9.77876 14.1782 9.77876 19.4291C9.77876 24.68 14.0132 28.9154 19.263 28.9154C24.5127 28.9154 28.7472 24.68 28.7472 19.4291C28.7472 14.1782 24.5127 9.94274 19.263 9.94274ZM19.263 25.5964C15.8705 25.5964 13.097 22.8306 13.097 19.4291C13.097 16.0275 15.8622 13.2617 19.263 13.2617C22.6638 13.2617 25.429 16.0275 25.429 19.4291C25.429 22.8306 22.6555 25.5964 19.263 25.5964ZM31.3473 9.5547C31.3473 10.7849 30.3568 11.7674 29.1351 11.7674C27.9053 11.7674 26.923 10.7766 26.923 9.5547C26.923 8.33279 27.9135 7.34205 29.1351 7.34205C30.3568 7.34205 31.3473 8.33279 31.3473 9.5547ZM37.6288 11.8004C37.4885 8.83642 36.8117 6.21096 34.6408 4.04784C32.4781 1.88473 29.8533 1.20772 26.89 1.05911C23.8359 0.885732 14.6818 0.885732 11.6277 1.05911C8.67268 1.19947 6.04781 1.87647 3.87692 4.03959C1.70603 6.2027 1.03743 8.82816 0.888856 11.7921C0.715515 14.8469 0.715515 24.003 0.888856 27.0578C1.02918 30.0217 1.70603 32.6472 3.87692 34.8103C6.04781 36.9734 8.66443 37.6504 11.6277 37.799C14.6818 37.9724 23.8359 37.9724 26.89 37.799C29.8533 37.6587 32.4781 36.9817 34.6408 34.8103C36.8034 32.6472 37.4803 30.0217 37.6288 27.0578C37.8022 24.003 37.8022 14.8552 37.6288 11.8004ZM33.6833 30.3355C33.0394 31.9537 31.793 33.2004 30.1669 33.8526C27.7319 34.8186 21.9539 34.5956 19.263 34.5956C16.5721 34.5956 10.7858 34.8103 8.35902 33.8526C6.74117 33.2086 5.49477 31.9619 4.84268 30.3355C3.87692 27.8999 4.09979 22.1206 4.09979 19.4291C4.09979 16.7376 3.88517 10.95 4.84268 8.52268C5.48651 6.90448 6.73292 5.65779 8.35902 5.00556C10.794 4.03959 16.5721 4.2625 19.263 4.2625C21.9539 4.2625 27.7402 4.04784 30.1669 5.00556C31.7848 5.64954 33.0312 6.89622 33.6833 8.52268C34.649 10.9583 34.4262 16.7376 34.4262 19.4291C34.4262 22.1206 34.649 27.9082 33.6833 30.3355Z" fill="white"/>
</svg>
