<svg width="39" height="63" viewBox="0 0 39 63" fill="none" xmlns="http://www.w3.org/2000/svg">
<g clip-path="url(#clip0_96_54)">
<path d="M8.73022 63.0001C8.6992 62.9754 8.67146 62.9376 8.63555 62.9261C6.79939 62.2999 6.0584 61.2628 6.0584 59.3069C6.0584 46.962 6.0584 34.6171 6.0584 22.2722C6.0584 21.5835 6.0584 20.8965 6.0584 20.2079C5.36148 21.4274 5.05137 22.7488 4.81308 24.0883C4.08514 28.1956 4.16675 32.3342 4.35934 36.476C4.42463 37.8895 3.5498 38.8871 2.26204 38.8871C1.2289 38.8871 0.243084 38.1146 0.185959 37.0841C-0.117619 31.588 -0.226973 26.0951 1.25664 20.7174C1.79525 18.7648 2.59173 16.9322 4.0117 15.4365C5.23743 14.1447 6.70473 13.438 8.51967 13.456C11.5391 13.4873 14.5619 13.5218 17.5797 13.4462C20.0475 13.3854 21.8445 14.4619 23.2187 16.4112C24.3694 18.0433 25.0076 19.8923 25.4678 21.8153C24.1001 22.0519 22.747 22.287 21.3352 22.5302C21.0823 21.7955 20.8032 20.9787 20.5224 20.1635C20.4702 20.1717 20.418 20.1799 20.3657 20.1881C20.3657 20.9507 20.3445 21.7134 20.3755 22.4743C20.3919 22.8573 20.2678 23.0397 19.9169 23.209C15.4122 25.3753 12.6506 28.9221 11.735 33.8611C11.2747 36.3478 11.5391 38.7967 12.3895 41.1848C12.5298 41.5793 12.6065 42.0181 12.6065 42.4373C12.6212 47.912 12.5755 53.3884 12.6376 58.8632C12.6604 60.9176 11.9749 62.3558 9.95595 62.9984H8.73185L8.73022 63.0001Z" fill="#FB7125"/>
<path d="M16.4439 63C16.013 62.7831 15.5479 62.6138 15.1578 62.3377C14.4054 61.8068 13.8847 61.0524 13.8798 60.127C13.8488 54.861 13.8651 49.5934 13.8651 44.2123C14.0332 44.4128 14.1475 44.5361 14.2454 44.6708C15.7372 46.7122 17.6207 48.2769 19.9204 49.3139C20.2876 49.4799 20.3725 49.6788 20.3708 50.0503C20.3578 53.0235 20.3627 55.9951 20.3627 58.9683C20.3627 61.3417 19.8224 62.1487 17.6664 63.0017H16.4423L16.4439 63Z" fill="#FB7125"/>
<path d="M25.8024 49.5457C18.5279 49.5457 12.613 43.6206 12.5788 36.2952C12.5445 28.9665 18.4741 22.9954 25.7909 22.9921C33.1193 22.9888 39.0129 28.9205 38.9999 36.2837C38.9868 43.6091 33.0817 49.5441 25.8024 49.5457ZM25.8677 26.179C20.3216 26.1412 15.8071 30.6051 15.7451 36.1884C15.6847 41.7108 20.1943 46.3095 25.724 46.3621C31.239 46.4147 35.7845 41.9031 35.8302 36.3313C35.8743 30.7547 31.4218 26.2168 25.8677 26.1773V26.179Z" fill="#FB7125"/>
<path d="M19.1514 5.97606C19.1514 9.28952 16.4976 11.9488 13.1974 11.9423C9.91515 11.9357 7.24987 9.23692 7.26619 5.9399C7.28414 2.67411 9.94943 0.00658642 13.2039 1.21037e-05C16.4927 -0.00656221 19.1531 2.6659 19.1531 5.97606H19.1514Z" fill="#FB7125"/>
<path d="M25.9085 42.3665C23.8063 40.9662 21.8853 39.5839 20.467 37.6281C19.7325 36.614 19.1678 35.5078 19.4518 34.2012C19.7815 32.6891 20.8636 31.8558 22.277 31.5402C23.7264 31.2165 24.9243 31.7506 25.7894 33.0721C26.3916 32.1648 27.1767 31.5813 28.2572 31.4827C31.0938 31.2247 33.0312 33.8791 31.7859 36.4365C31.3207 37.3914 30.645 38.3019 29.8795 39.0366C28.6326 40.2331 27.2338 41.2669 25.9036 42.3665H25.9085Z" fill="#FB7125"/>
</g>
<defs>
<clipPath id="clip0_96_54">
<rect width="39" height="63" fill="white"/>
</clipPath>
</defs>
</svg>
