<svg width="89" height="92" viewBox="0 0 89 92" fill="none" xmlns="http://www.w3.org/2000/svg">
<g clip-path="url(#clip0_228_660)">
<path d="M89 57.1644C89 67.5544 89 77.9418 89 88.3318C89 90.9482 87.9576 91.9973 85.3583 91.9973C79.9776 91.9973 74.5968 91.9999 69.2161 91.9973C66.8793 91.9973 65.772 90.8883 65.772 88.5297C65.7694 67.6221 65.7694 46.7145 65.772 25.807C65.772 23.3546 66.8819 22.2612 69.3591 22.2612C74.7086 22.256 80.0555 22.256 85.405 22.2612C87.9134 22.2612 89.0026 23.3677 89.0026 25.9033C89.0026 36.3246 89.0026 46.7458 89.0026 57.167L89 57.1644Z" fill="#FB7125"/>
<path d="M34.122 66.1696C34.122 58.7995 34.122 51.4294 34.122 44.0593C34.122 41.5471 35.1566 40.5031 37.6442 40.5031C43.0587 40.5031 48.4706 40.5005 53.8851 40.5031C56.2271 40.5031 57.3162 41.6069 57.3162 43.9708C57.3162 58.8073 57.3162 73.6464 57.3162 88.483C57.3162 90.9015 56.2323 91.9923 53.8279 91.9949C48.4134 91.9975 43.0015 91.9975 37.587 91.9949C35.1722 91.9949 34.1246 90.9275 34.1246 88.4752C34.1246 81.04 34.1246 73.6048 34.1246 66.1696H34.122Z" fill="#FB7125"/>
<path d="M25.6298 75.3853C25.6298 79.8006 25.6324 84.2159 25.6298 88.6338C25.6298 90.8727 24.5225 91.9947 22.3 91.9973C16.7894 92.0025 11.2761 92.0051 5.76541 91.9973C3.55594 91.9947 2.44601 90.8596 2.44601 88.6182C2.44601 79.7537 2.44341 70.8893 2.44601 62.0249C2.44601 59.8745 3.60273 58.6926 5.73162 58.69C11.2761 58.6822 16.818 58.6796 22.3624 58.69C24.4523 58.6926 25.622 59.8641 25.6272 61.9442C25.635 66.4245 25.6298 70.9049 25.6298 75.3853Z" fill="#FB7125"/>
<path d="M29.5571 9.41373C28.4471 8.60669 27.397 7.89858 26.4248 7.09674C26.1025 6.8312 25.7932 6.29491 25.8347 5.92263C25.8685 5.61283 26.378 5.22233 26.7523 5.09997C31.8913 3.4208 37.0406 1.78069 42.19 0.140576C43.3207 -0.218687 43.7938 0.0989225 43.8744 1.25742C44.2669 6.85984 44.6672 12.4623 45.0129 18.0673C45.0441 18.5749 44.8466 19.3768 44.5061 19.5486C44.1473 19.7282 43.4325 19.4132 42.9802 19.1373C42.1224 18.6192 41.3426 17.9762 40.4432 17.3253C40.2015 17.6325 39.9649 17.9241 39.7388 18.2235C35.9281 23.2896 31.6469 27.8585 26.2169 31.2403C19.6482 35.3301 12.4428 36.7099 4.8188 36.3324C3.62049 36.2726 2.41698 36.2179 1.23686 36.0226C0.787168 35.9471 0.168517 35.5644 0.0411476 35.1817C-0.184998 34.5075 0.420656 34.2003 1.02891 34.0102C13.4721 30.1364 22.3932 22.0218 28.785 10.8664C29.0424 10.4186 29.2685 9.95262 29.5493 9.41633L29.5571 9.41373Z" fill="#FB7125"/>
</g>
<defs>
<clipPath id="clip0_228_660">
<rect width="89" height="92" fill="white"/>
</clipPath>
</defs>
</svg>
