<svg width="37" height="28" viewBox="0 0 37 28" fill="none" xmlns="http://www.w3.org/2000/svg">
<g clip-path="url(#clip0_88_1649)">
<path d="M37 27.0245C36.7411 27.588 36.345 28.0063 35.6838 28.0001C35.2939 27.9955 34.9025 27.8813 34.5173 27.7994C32.1594 27.2931 29.7703 27.0508 27.3625 27.0431C25.4396 27.0384 23.5215 27.182 21.6439 27.6513C21.5862 27.6651 21.5254 27.6651 21.4053 27.6775C21.9589 27.1079 22.5608 26.6927 23.1893 26.3175C24.8361 25.3389 26.6404 24.8171 28.5258 24.5192C29.6221 24.3463 30.734 24.3865 31.8303 24.2475C33.4101 24.0469 34.6187 22.7178 34.6888 21.1479C34.6982 20.9457 34.6966 20.7435 34.6966 20.5397C34.6966 15.3438 34.7013 10.148 34.6873 4.95209C34.6873 4.59242 34.7918 4.49826 35.1271 4.53685C35.4249 4.57236 35.7337 4.53222 36.0253 4.58934C36.5228 4.68813 36.7739 5.08484 37 5.49082V27.0245Z" fill="white"/>
<path d="M17.4536 26.6153C16.8532 26.0241 16.2513 25.4992 15.587 25.0469C13.7405 23.7889 11.6914 23.0387 9.49254 22.6512C8.22313 22.4274 6.94593 22.3162 5.65625 22.2946C4.90146 22.2823 4.33849 21.7111 4.33693 20.9702C4.33381 14.4267 4.33381 7.88326 4.33693 1.33825C4.33693 0.57878 4.90302 -0.0124321 5.6812 0.00146059C8.54906 0.0508569 11.3171 0.52784 13.8232 2.01282C15.2298 2.84638 16.3698 3.95625 17.254 5.32237C17.4053 5.557 17.4833 5.81942 17.4833 6.09882C17.4833 12.9047 17.4833 19.7106 17.4802 26.5165C17.4802 26.5273 17.4739 26.5381 17.4521 26.6122L17.4536 26.6153Z" fill="white"/>
<path d="M19.5152 26.5769C19.5152 19.9794 19.5339 13.4112 19.495 6.84303C19.4887 5.87208 19.81 5.13114 20.3963 4.41489C22.0509 2.39273 24.2264 1.22111 26.7247 0.565063C28.2093 0.174523 29.7266 0.0402272 31.2549 9.26911e-05C32.0846 -0.0215182 32.6631 0.561976 32.6631 1.38319C32.6647 7.89116 32.6647 14.3991 32.6631 20.9071C32.6631 21.7468 32.1002 22.2856 31.2269 22.2994C28.8097 22.3396 26.4486 22.6838 24.189 23.5776C22.5999 24.2058 21.1667 25.0734 19.9285 26.2481C19.824 26.3469 19.7195 26.4457 19.6119 26.5414C19.5979 26.5537 19.5729 26.5552 19.5152 26.5738V26.5769Z" fill="white"/>
<path d="M15.6197 27.6943C14.8009 27.5276 14.0633 27.3778 13.3163 27.2775C11.9424 27.0923 10.5623 27.0351 9.17748 27.0521C6.60904 27.0845 4.08269 27.4519 1.57039 27.9644C0.709559 28.1404 0.00311894 27.5245 0.00155947 26.6461C0 22.5462 0 18.4448 0 14.3449C0 11.5556 0 8.76622 0 5.97687C0 5.08001 0.511506 4.56753 1.42068 4.54283C2.00808 4.52739 2.30178 4.81348 2.30178 5.40109C2.30178 10.5275 2.3049 15.6524 2.30022 20.7788C2.30022 22.2175 2.90217 23.2934 4.19965 23.9664C4.6441 24.1964 5.12598 24.2983 5.62033 24.306C7.20008 24.3291 8.76266 24.4897 10.2925 24.8879C12.1405 25.3711 14.0118 26.1676 15.6197 27.6958V27.6943Z" fill="white"/>
</g>
<defs>
<clipPath id="clip0_88_1649">
<rect width="37" height="28" fill="white"/>
</clipPath>
</defs>
</svg>
