<svg width="110" height="103" viewBox="0 0 110 103" fill="none" xmlns="http://www.w3.org/2000/svg">
<path d="M107.8 100.318C105.395 100.325 102.99 100.263 100.591 100.348C99.5614 100.383 99.3359 100.098 99.3359 99.0945C99.3686 81.489 99.362 63.8803 99.362 46.2748C99.362 46.0735 99.3751 45.869 99.362 45.6677C99.3293 45.1905 99.5058 45.0055 100.022 44.8789C107.715 42.9862 109.997 37.2562 109.64 30.5231C109.624 30.2276 109.418 29.9225 109.248 29.653C103.388 20.287 97.5122 10.934 91.6786 1.55178C91.1099 0.639526 90.4628 0.314881 89.4072 0.324621C84.3186 0.370071 79.2268 0.344099 74.1383 0.344099C64.6508 0.344099 55.1666 0.344099 45.6791 0.344099C37.2897 0.344099 28.9003 0.360332 20.5109 0.321374C19.439 0.314881 18.818 0.678483 18.2592 1.57775C12.8144 10.3496 7.38923 19.1248 1.81047 27.8058C0.640462 29.627 0.245013 31.3931 0.33979 33.4611C0.604512 39.1651 4.13413 43.5543 9.70963 44.8366C10.4515 45.0087 10.5888 45.2749 10.5855 45.9404C10.5692 63.7504 10.5659 81.5604 10.5953 99.3672C10.5953 100.211 10.3077 100.348 9.55929 100.335C7.033 100.296 4.5067 100.325 1.98041 100.315C1.13395 100.312 0.372472 100.413 0.388813 101.497C0.401885 102.529 1.16337 102.578 1.94119 102.581C5.68651 102.607 9.4351 102.662 13.1804 102.666C27.1126 102.675 41.0481 102.669 54.9803 102.669V102.581C72.5794 102.581 90.1785 102.581 107.778 102.581C108.601 102.581 109.542 102.666 109.546 101.468C109.546 100.299 108.65 100.315 107.8 100.318ZM78.6418 2.60038C82.1061 2.61337 85.5671 2.61337 89.0313 2.60038C89.4954 2.60038 89.7569 2.75946 89.9987 3.15228C95.4108 11.8333 100.836 20.5078 106.376 29.3706C100.271 29.3706 94.3715 29.3641 88.4692 29.3803C87.9594 29.3803 87.796 29.166 87.6326 28.7343C84.4755 20.2643 81.3119 11.7943 78.1157 3.33732C77.8575 2.65557 78.0568 2.60038 78.6418 2.60363V2.60038ZM77.6941 43.1193C72.2003 44.0413 66.8078 39.48 66.8536 33.9481C66.8666 32.4915 67.6118 31.7632 69.089 31.7632H76.4227C79.2759 31.7632 82.1257 31.7632 84.9788 31.7632C85.4102 31.7632 85.7991 31.6528 85.8612 32.3768C86.3384 37.8568 83.0473 42.22 77.6941 43.116V43.1193ZM65.2881 2.60687C68.3014 2.60687 71.3179 2.62635 74.3311 2.59064C75.0305 2.5809 75.3998 2.74972 75.6613 3.45744C78.802 11.9274 81.9819 20.3812 85.1488 28.8414C85.201 28.9842 85.2305 29.1368 85.2926 29.3673C79.2399 29.3673 73.2559 29.3576 67.2751 29.3803C66.6248 29.3803 66.7032 29.0037 66.6542 28.6109C66.1836 24.9294 65.7032 21.2512 65.2358 17.5697C64.6835 13.2487 64.1704 8.92446 63.5821 4.60668C63.3076 2.59389 63.2455 2.60363 65.2881 2.60363V2.60687ZM56.8562 42.6875C51.9768 43.6225 47.2609 40.7981 45.8196 36.081C45.7837 35.9641 45.7379 35.8537 45.7085 35.7369C45.3882 34.4707 44.9993 32.9709 45.617 31.9775C46.0451 31.286 47.6563 31.7957 48.7381 31.7762C50.8134 31.7405 52.8887 31.7665 54.964 31.7665C57.853 31.7665 60.7421 31.7632 63.6311 31.7697C64.0397 31.7697 64.4613 31.6009 64.5299 32.3541C64.9743 37.2075 61.6114 41.7817 56.8595 42.6907L56.8562 42.6875ZM48.7937 3.92818C48.6989 2.75946 49.2218 2.56142 50.2709 2.5809C53.5292 2.64583 56.7876 2.62635 60.046 2.58739C60.814 2.57765 61.0329 2.77244 61.1245 3.57431C61.6898 8.50242 62.3435 13.4208 62.9677 18.3424C63.3991 21.7447 63.8109 25.1469 64.2619 28.546C64.3632 29.3024 64.0299 29.3836 63.3926 29.3771C60.5819 29.3478 57.7713 29.3641 54.9607 29.3641C52.1501 29.3641 49.3394 29.3251 46.5288 29.3868C45.6856 29.4063 45.6039 29.0849 45.6889 28.4096C46.6563 20.9298 47.6073 13.4468 48.5649 5.96694C48.6531 5.28519 48.8492 4.59694 48.7937 3.92818ZM34.1849 3.64898C34.4889 2.8114 34.8941 2.57116 35.7569 2.58415C39.0512 2.63284 42.3488 2.61661 45.6464 2.59389C46.3033 2.59064 46.604 2.59064 46.4863 3.47367C45.4569 11.2229 44.496 18.9852 43.5286 26.7442C43.4208 27.6078 43.6528 28.77 43.0286 29.231C42.473 29.6433 41.388 29.3608 40.5383 29.3608C35.6556 29.3641 30.7697 29.3608 25.8871 29.3608H24.5961C26.142 25.2184 27.6388 21.1993 29.1422 17.1834C30.8285 12.6709 32.5476 8.17128 34.1882 3.64249L34.1849 3.64898ZM43.0613 33.3799C43.1266 38.4282 39.9892 42.207 34.9987 43.0966C29.4461 44.0835 24.0242 39.5287 24.0765 33.9188C24.0896 32.4818 24.802 31.7632 26.2139 31.7632H41.3684C42.4817 31.7632 43.0449 32.3021 43.058 33.3799H43.0613ZM4.11126 28.52C9.33052 20.1409 14.5563 11.7683 19.7887 3.39901C20.0109 3.0419 20.1351 2.59389 20.7332 2.59713C24.4687 2.61661 28.2075 2.60687 32.0933 2.60687C30.9527 5.67152 29.8677 8.60306 28.7729 11.5281C26.6583 17.1704 24.5373 22.8063 22.4228 28.4453C22.2234 28.9745 22.0829 29.3965 21.2887 29.3901C15.4649 29.3414 9.641 29.3641 3.81712 29.3641C3.62757 28.9615 3.96419 28.757 4.11452 28.5168L4.11126 28.52ZM2.63078 34.1688C2.58066 32.5651 3.36067 31.7632 4.97078 31.7632H12.1706C15.0596 31.7632 17.9454 31.76 20.8345 31.7665C21.2397 31.7665 21.6679 31.5911 21.7365 32.3443C22.2398 37.6652 18.9389 42.0999 13.6935 43.0706C8.23242 44.0802 2.80726 39.7105 2.63078 34.1656V34.1688ZM50.8003 99.3672C50.8003 100.111 50.6238 100.315 49.8623 100.312C41.5154 100.283 33.1653 100.279 24.8184 100.318C23.9425 100.322 23.8608 100 23.8641 99.2795C23.8869 93.1697 23.8771 87.0632 23.8771 80.9534C23.8771 74.8436 23.8935 68.737 23.8575 62.6272C23.8543 61.8156 24.0046 61.5364 24.9001 61.5396C33.1653 61.5786 41.4337 61.5721 49.6989 61.5461C50.5192 61.5461 50.8036 61.7149 50.8003 62.5947C50.7709 74.8533 50.7709 87.1086 50.8003 99.3672ZM96.0416 100.318C82.0669 100.286 68.0889 100.286 54.1142 100.318C53.1534 100.318 53.0096 100.029 53.0096 99.1659C53.039 86.5372 53.0292 73.9053 53.0292 61.2766C53.0292 59.4716 52.82 59.2639 50.9997 59.2639C41.8717 59.2639 32.7437 59.2639 23.619 59.2639C21.8117 59.2639 21.5829 59.4879 21.5829 61.2896C21.5829 73.8794 21.5698 86.4691 21.6058 99.0555C21.6058 100.042 21.4129 100.361 20.3671 100.318C18.2101 100.224 16.0499 100.263 13.8896 100.305C13.1477 100.322 12.8536 100.195 12.8536 99.3445C12.883 81.5734 12.8765 63.8024 12.8634 46.0346C12.8634 45.4405 12.9157 45.0866 13.6412 44.9925C17.8212 44.4471 20.8116 42.1875 22.8183 38.558C27.4296 47.2617 39.731 47.2975 44.3261 38.5742C48.9211 47.213 60.8826 47.3721 65.6149 38.5742C70.1707 47.2163 82.4754 47.3461 87.1195 38.5613C89.1261 42.1973 92.1263 44.4471 96.303 44.9925C97.1625 45.1029 97.0645 45.6028 97.0645 46.1644C97.0645 57.6212 97.0645 69.0746 97.0645 80.5313C97.0645 86.7645 97.0481 92.9977 97.0841 99.2341C97.0874 100.046 96.937 100.318 96.0481 100.318H96.0416ZM88.2208 33.5195C88.2208 32.3508 88.8146 31.7665 90.002 31.7665C95.4108 31.7665 100.82 31.7957 106.228 31.7405C107.183 31.7307 107.294 32.0262 107.34 32.88C107.634 38.4249 103.696 42.6843 98.6267 43.1712C92.9564 43.7134 88.2208 39.2917 88.2241 33.5195H88.2208Z" fill="white"/>
<path d="M32.8417 103C26.289 103 19.7364 103 13.1837 102.993C10.7358 102.993 8.24548 102.967 5.8401 102.945C4.54264 102.932 3.24191 102.919 1.94445 102.909C1.29408 102.906 0.0848601 102.896 0.0685192 101.503C0.0619829 101.036 0.186173 100.672 0.437822 100.419C0.836539 100.02 1.43788 99.9903 1.9902 99.9903C2.91183 99.9936 3.83345 99.9903 4.75834 99.9903C6.33687 99.9871 7.96768 99.9838 9.57235 100.01C9.80439 100.013 10.0724 100.007 10.1672 99.9124C10.2194 99.8637 10.2783 99.7273 10.2783 99.367C10.2554 83.7191 10.2521 66.7402 10.2685 45.937C10.2685 45.3981 10.2194 45.2844 9.64425 45.1513C3.97398 43.8495 0.287487 39.3759 0.0129604 33.4771C-0.091621 31.2338 0.378995 29.4288 1.53266 27.6303C6.56237 19.8031 11.5529 11.7616 16.3799 3.9864L17.9781 1.40873C18.599 0.40882 19.3278 -0.003479 20.4848 -0.003479H20.5076C26.9067 0.025739 33.4169 0.0224926 39.7081 0.0192461H74.1317C75.4684 0.0192461 76.8051 0.0192461 78.1418 0.0192461C81.8316 0.0224926 85.6455 0.0289855 89.3974 -0.003479C90.6066 -0.003479 91.3321 0.386095 91.9465 1.37626C96.071 8.00875 100.287 14.7419 104.366 21.251C106.085 23.9943 107.8 26.7343 109.516 29.4775L109.559 29.5457C109.735 29.8281 109.938 30.1463 109.957 30.5001C110.382 38.5318 107.065 43.4729 100.091 45.1871C99.6758 45.2877 99.6627 45.3721 99.679 45.6383C99.6888 45.7844 99.6856 45.9337 99.6823 46.0798C99.6823 46.1415 99.6823 46.2064 99.6823 46.2681V55.7575C99.6823 69.9607 99.6856 84.6444 99.6561 99.0911C99.6561 99.5391 99.7052 99.7858 99.813 99.8897C99.9209 99.9936 100.163 100.033 100.571 100.02C102.212 99.9611 103.882 99.9741 105.493 99.9838C106.258 99.9903 107.029 99.9936 107.791 99.9903V100.315L107.82 99.9903C108.408 99.9838 109.072 99.9871 109.493 100.406C109.742 100.649 109.866 101.006 109.866 101.467C109.866 101.922 109.742 102.273 109.5 102.513C109.095 102.912 108.47 102.909 107.925 102.906H107.774C92.6884 102.906 77.6025 102.906 62.5199 102.906H55.3038V102.993H43.911C40.218 102.993 36.5249 102.993 32.8352 102.993L32.8417 103ZM1.94118 100.643C1.51305 100.643 1.09799 100.675 0.895366 100.877C0.771175 101 0.712348 101.204 0.715617 101.493C0.725421 102.139 1.02936 102.253 1.94445 102.26C3.24518 102.269 4.54264 102.282 5.84337 102.295C8.24874 102.318 10.7358 102.344 13.1837 102.344C23.4294 102.35 33.6751 102.35 43.9208 102.35H54.66V102.26H62.5298C77.6124 102.26 92.7015 102.26 107.784 102.26H107.938C108.379 102.263 108.836 102.266 109.049 102.055C109.163 101.941 109.222 101.743 109.222 101.471C109.222 101.188 109.163 100.99 109.042 100.87C108.814 100.643 108.317 100.64 107.833 100.646H107.804C107.039 100.646 106.268 100.646 105.5 100.64C103.892 100.63 102.231 100.62 100.604 100.675C100.169 100.692 99.6823 100.666 99.3685 100.364C99.0548 100.062 99.0123 99.5748 99.0123 99.0943C99.0417 84.6509 99.0385 69.9639 99.0385 55.764V46.2746C99.0385 46.2064 99.0385 46.1415 99.0385 46.0733C99.0385 45.9435 99.045 45.8169 99.0352 45.687C98.9829 44.9046 99.4633 44.6806 99.9405 44.5637C106.565 42.934 109.716 38.2169 109.31 30.5391C109.301 30.3508 109.147 30.1073 109.013 29.893L108.967 29.8216C107.251 27.0784 105.536 24.3384 103.817 21.5951C99.7378 15.086 95.5219 8.35287 91.3975 1.72038C90.9007 0.918512 90.3745 0.649057 89.4072 0.649057C85.652 0.681521 81.8348 0.678275 78.1451 0.671782C76.8084 0.671782 75.4717 0.668535 74.135 0.668535H39.7114C33.4169 0.675028 26.91 0.678275 20.5076 0.64581C19.5729 0.636071 19.0435 0.931498 18.5369 1.7496L16.9388 4.32728C12.1117 12.1058 7.12123 20.1472 2.08825 27.9776C1.00975 29.6561 0.571817 31.341 0.669862 33.4447C0.928047 39.0383 4.42172 43.2846 9.78478 44.5215C10.7358 44.739 10.9156 45.1903 10.9156 45.9402C10.8992 66.7435 10.8992 83.7191 10.9254 99.367C10.9254 99.6981 10.8927 100.11 10.6182 100.377C10.3665 100.623 10.0136 100.666 9.55601 100.659C7.95461 100.633 6.32706 100.636 4.7518 100.64C3.82691 100.64 2.90529 100.643 1.9804 100.64H1.94118V100.643ZM20.5436 100.653C20.4815 100.653 20.4194 100.653 20.3508 100.649C18.282 100.562 16.2035 100.591 13.8929 100.636C13.5268 100.643 13.1052 100.63 12.8307 100.36C12.5595 100.097 12.5268 99.6819 12.5268 99.3508C12.5562 80.372 12.5497 61.7504 12.5366 46.0409C12.5366 45.3948 12.615 44.804 13.5987 44.6774C17.5075 44.1677 20.5142 42.0575 22.5306 38.4052L22.8248 37.8761L23.1091 38.4117C25.2236 42.4016 29.1421 44.7812 33.5967 44.7812H33.613C38.0479 44.7748 41.9436 42.3984 44.0352 38.4247L44.3228 37.8793L44.6137 38.4247C46.7282 42.4016 50.5944 44.7812 54.9476 44.791H54.9737C59.3106 44.791 63.1768 42.4146 65.324 38.4247L65.6149 37.8825L65.9025 38.4247C67.9974 42.4016 71.9094 44.7747 76.3672 44.778H76.3737C80.8119 44.778 84.7173 42.3984 86.8253 38.4117L87.1096 37.8761L87.4038 38.4052C89.417 42.051 92.4237 44.1579 96.3422 44.6676C97.4109 44.8072 97.3978 45.5312 97.3913 46.0116V46.161C97.388 55.4685 97.388 64.7761 97.388 74.0837V84.982C97.3848 89.6504 97.3815 94.4811 97.4076 99.2274C97.4076 99.7079 97.3586 100.078 97.107 100.331C96.8357 100.604 96.4076 100.643 96.0448 100.64C81.2531 100.607 67.5398 100.607 54.1175 100.64C53.7188 100.633 53.2841 100.604 52.9998 100.321C52.7383 100.062 52.686 99.6852 52.686 99.1625C52.7089 88.7738 52.7089 78.2099 52.7056 67.9933V61.2764C52.7056 59.6532 52.6403 59.5883 50.9997 59.5883C41.8717 59.5883 32.7437 59.5883 23.6189 59.5883C21.9914 59.5883 21.9097 59.6694 21.9097 61.2894V68.0258C21.9064 78.1969 21.9032 88.7122 21.9326 99.0553C21.9326 99.6202 21.8737 100.055 21.5763 100.338C21.3541 100.552 21.0371 100.646 20.5436 100.646V100.653ZM17.4258 99.9416C18.4258 99.9416 19.403 99.9578 20.3802 100C20.7756 100.016 21.0207 99.9773 21.1253 99.8767C21.2332 99.7728 21.2822 99.5228 21.2789 99.0651C21.2495 88.7219 21.2528 78.2034 21.2528 68.0323V61.2959C21.2528 59.3188 21.6286 58.9455 23.6157 58.9455C32.7437 58.9455 41.8717 58.9455 50.9964 58.9455C52.9998 58.9455 53.3527 59.2961 53.3527 61.2829V67.9998C53.3527 78.2164 53.356 88.7803 53.3331 99.1722C53.3331 99.4579 53.3462 99.7631 53.454 99.8702C53.539 99.9546 53.7514 99.9968 54.0946 99.9968H54.1077C67.53 99.9611 81.2465 99.9611 96.0383 99.9968H96.0481C96.3618 99.9968 96.5612 99.9579 96.6396 99.8799C96.7409 99.7793 96.7507 99.4839 96.7507 99.2404C96.7246 94.4908 96.7279 89.6601 96.7311 84.9885V74.0934C96.7311 64.7858 96.7311 55.4783 96.7344 46.1707V46.0116C96.7442 45.5182 96.7475 45.3851 96.2572 45.3202C92.306 44.804 89.2339 42.7587 87.1227 39.2298C84.8448 43.1256 80.8674 45.4338 76.377 45.4338H76.3704C71.8636 45.4338 67.883 43.1321 65.6116 39.2493C63.301 43.1418 59.3694 45.4435 54.977 45.4435H54.9476C50.5388 45.4338 46.6105 43.1288 44.3261 39.2493C42.0612 43.1256 38.0969 45.4273 33.613 45.4338H33.5967C29.0899 45.4338 25.0994 43.1256 22.815 39.2266C20.6972 42.7587 17.6284 44.8105 13.6837 45.3234C13.2262 45.3818 13.1902 45.4792 13.1935 46.0441C13.2066 61.7537 13.2131 80.3753 13.1837 99.3573C13.1837 99.7176 13.2425 99.8507 13.2915 99.8994C13.383 99.9871 13.6543 99.9936 13.8831 99.9903C15.1184 99.9643 16.2852 99.9449 17.4258 99.9449V99.9416ZM24.8086 100.64C24.3347 100.64 24.034 100.549 23.8281 100.347C23.5601 100.081 23.5405 99.6884 23.5405 99.2761C23.5601 94.5655 23.5568 89.7738 23.5568 85.1411V80.9531V76.5997C23.5568 72.0222 23.5634 67.2856 23.5372 62.6302C23.5372 62.1497 23.5863 61.7764 23.8412 61.5232C24.1157 61.2505 24.5308 61.2115 24.9066 61.2148C32.4724 61.2505 40.584 61.2505 49.7022 61.2212C50.1793 61.231 50.5552 61.2699 50.8166 61.5297C51.0389 61.7504 51.1336 62.0686 51.1336 62.5945C51.1042 74.1583 51.1042 86.1897 51.1336 99.367C51.1336 99.7338 51.101 100.107 50.8493 100.354C50.6009 100.601 50.2251 100.636 49.8852 100.636H49.8689C40.5775 100.604 32.3874 100.607 24.8282 100.643H24.8118L24.8086 100.64ZM24.887 61.864C24.5765 61.864 24.3804 61.903 24.302 61.9809C24.2007 62.0816 24.1876 62.3802 24.1909 62.627C24.217 67.2856 24.2137 72.0189 24.2105 76.5997V80.9531V85.1411C24.2105 89.7738 24.2137 94.5655 24.1941 99.2793C24.1941 99.5455 24.2039 99.8053 24.2889 99.8897C24.3379 99.9384 24.4719 99.9806 24.8184 99.9936C32.3776 99.9579 40.5709 99.9578 49.8623 99.9871C50.1271 99.9838 50.3166 99.9578 50.3787 99.8962C50.4408 99.8345 50.4735 99.6559 50.4702 99.3702C50.4441 86.1929 50.4441 74.1648 50.4702 62.5977C50.4702 62.2796 50.431 62.0751 50.346 61.9939C50.261 61.9095 50.0617 61.8835 49.6957 61.8738C40.5775 61.9062 32.4626 61.903 24.8935 61.8673H24.8772L24.887 61.864ZM76.2626 43.5638C74.0239 43.5638 71.7983 42.736 69.9812 41.1972C67.7654 39.3207 66.5071 36.6781 66.53 33.9479C66.5496 31.5844 66.6934 31.4416 69.0922 31.4416H84.9821C85.0376 31.4351 85.0801 31.4416 85.1259 31.4416C85.4952 31.4319 86.1096 31.4124 86.1913 32.3539C86.6881 38.0579 83.2957 42.512 77.7529 43.4437C77.2594 43.5249 76.7626 43.5671 76.2659 43.5671L76.2626 43.5638ZM69.0922 32.0909C68.1379 32.0909 67.5627 32.0909 67.3764 32.2694C67.1934 32.448 67.1902 33.0129 67.1804 33.9511C67.1575 36.4898 68.334 38.9506 70.4028 40.7005C72.4748 42.4568 75.1155 43.2197 77.6385 42.7977C82.8251 41.9276 85.9985 37.7527 85.5344 32.4058C85.505 32.0747 85.4984 32.0747 85.1422 32.0876C85.0899 32.0876 85.0344 32.0876 84.9788 32.0876H69.089L69.0922 32.0909ZM33.4692 43.5573C31.2436 43.5573 29.0408 42.7457 27.2368 41.2361C24.9981 39.3597 23.7301 36.6911 23.7562 33.9186C23.7791 31.5812 23.9163 31.4416 26.2204 31.4416H41.3749C43.2181 31.4416 43.3685 31.5877 43.3914 33.3765C43.4567 38.5643 40.1886 42.5055 35.0608 43.4145C34.5314 43.5086 33.9986 43.5541 33.4692 43.5541V43.5573ZM26.2204 32.0909C25.3151 32.0909 24.7693 32.0909 24.5961 32.263C24.4229 32.4383 24.4164 32.9966 24.4066 33.9251C24.3837 36.5028 25.5668 38.9863 27.6551 40.7394C29.7402 42.4893 32.3972 43.2327 34.9431 42.7782C39.7375 41.9244 42.7965 38.2397 42.7345 33.3862C42.7279 32.7629 42.7214 32.3084 42.607 32.2013C42.4893 32.0909 42.022 32.0909 41.3716 32.0909H26.2171H26.2204ZM12.1052 43.5476C9.94492 43.5476 7.78793 42.7847 6.00351 41.3562C3.74194 39.548 2.39546 36.9313 2.30721 34.1816C2.268 32.8895 2.24512 32.2402 2.63403 31.8409C3.02294 31.4416 3.67331 31.4416 4.97077 31.4416H14.2916C16.4715 31.4416 18.6546 31.4416 20.8345 31.4448C20.89 31.4351 20.9488 31.4416 21.0077 31.4384C21.3214 31.4189 21.9718 31.3734 22.0633 32.3214C22.5862 37.8436 19.1677 42.3983 13.7556 43.3983C13.2098 43.4989 12.6575 43.5476 12.1052 43.5476ZM2.96085 34.1621C3.04255 36.7236 4.3008 39.1616 6.41203 40.853C8.50366 42.5282 11.1378 43.223 13.6347 42.7587C18.7036 41.8237 21.8999 37.5547 21.4097 32.3831C21.3901 32.171 21.2702 32.0725 21.0502 32.0876C20.9783 32.0941 20.9129 32.0974 20.8312 32.0974C18.6513 32.0909 16.4715 32.0909 14.2916 32.0941H4.97077C3.92823 32.0941 3.29747 32.0941 3.10138 32.2954C2.90529 32.4967 2.9249 33.1233 2.95758 34.1621H2.96085ZM97.6756 43.5443C95.2572 43.5443 92.9793 42.6776 91.1785 41.0511C89.0901 39.1649 87.8907 36.4216 87.894 33.5226C87.894 31.5812 88.0313 31.4448 90.002 31.4448C91.3746 31.4448 92.7472 31.4448 94.1166 31.4481C98.0842 31.4546 102.189 31.4578 106.225 31.4189C107.493 31.4124 107.621 32.0097 107.663 32.8668C107.957 38.4085 104.085 42.9795 98.6561 43.4989C98.326 43.5314 97.9992 43.5476 97.6756 43.5476V43.5443ZM90.002 32.0941C89.3059 32.0941 88.8026 32.0941 88.6751 32.2175C88.5476 32.3409 88.5476 32.8376 88.5476 33.5226C88.5476 36.2398 89.6654 38.811 91.6197 40.5706C93.5251 42.288 96.0023 43.0996 98.594 42.8496C103.666 42.3626 107.287 38.0838 107.013 32.8993C106.974 32.1428 106.941 32.0552 106.232 32.0682C102.192 32.1071 98.0874 32.1039 94.1166 32.0974C92.744 32.0974 91.3746 32.0941 90.002 32.0941ZM55.0097 43.1937C50.7023 43.1937 46.8001 40.418 45.5059 36.1814C45.4928 36.1392 45.4797 36.097 45.4634 36.0516C45.4372 35.9736 45.4111 35.899 45.3915 35.8211C45.0581 34.516 44.6529 32.9155 45.3392 31.8084C45.7477 31.1527 46.7347 31.2663 47.689 31.3734C48.0518 31.4156 48.4243 31.4611 48.7315 31.4513C50.2022 31.4254 51.6925 31.4319 53.137 31.4351C53.7449 31.4351 54.3528 31.4384 54.9639 31.4384H57.1307C59.2975 31.4384 61.4643 31.4384 63.6311 31.4416C63.6932 31.4351 63.7455 31.4384 63.8043 31.4351C64.1442 31.4124 64.7717 31.3734 64.8567 32.3214C65.3208 37.3729 61.8336 42.064 56.9216 43.0087C56.281 43.132 55.6405 43.1905 55.013 43.1905L55.0097 43.1937ZM46.6138 31.9416C46.2739 31.9416 45.9928 31.9902 45.8948 32.1493C45.3523 33.0194 45.7052 34.4121 46.019 35.6393C46.0386 35.7204 46.0615 35.7789 46.0811 35.8405C46.0974 35.8892 46.1137 35.9412 46.1301 35.9899C47.5158 40.5252 52.1043 43.2716 56.7941 42.3724C61.3826 41.4926 64.6345 37.1066 64.203 32.3831C64.1736 32.0649 64.1769 32.0649 63.8436 32.0876C63.7717 32.0909 63.6834 32.0909 63.6279 32.0974C61.4611 32.0909 59.2943 32.0941 57.1307 32.0941H54.9639C54.3561 32.0941 53.7449 32.0941 53.137 32.0909C51.6958 32.0844 50.2088 32.0812 48.7479 32.1071C48.3949 32.1136 48.0027 32.0682 47.6171 32.026C47.2935 31.9902 46.9275 31.948 46.617 31.948L46.6138 31.9416ZM42.0972 29.7859C41.8324 29.7859 41.5579 29.7599 41.2834 29.7372C41.0187 29.7145 40.7703 29.6918 40.5382 29.6918H40.535C36.8714 29.6918 33.2077 29.6918 29.5474 29.6918H24.1255L25.5374 25.9064C26.6485 22.9294 27.7401 20.0011 28.8349 17.0761C29.3186 15.7872 29.8023 14.4984 30.286 13.2096C31.4756 10.0443 32.7077 6.77185 33.8777 3.53839C34.2209 2.59043 34.7438 2.23982 35.7602 2.25929C39.097 2.31124 42.424 2.28851 45.6431 2.26903C46.0582 2.26903 46.4111 2.26579 46.6432 2.5255C46.8687 2.78197 46.8523 3.1683 46.8066 3.51242C45.8817 10.4728 44.9993 17.5565 44.1463 24.4066L43.8489 26.7797C43.8195 27.007 43.8162 27.2602 43.813 27.5296C43.8031 28.2471 43.7933 29.0587 43.2181 29.4872C42.9142 29.7145 42.5188 29.7762 42.0939 29.7762L42.0972 29.7859ZM40.5415 29.0425C40.7997 29.0425 41.0742 29.0652 41.3422 29.0912C41.9305 29.1431 42.5384 29.1951 42.8325 28.9775C43.1495 28.7438 43.1561 28.127 43.1626 27.5329C43.1626 27.2569 43.1691 26.9745 43.2018 26.7083L43.4959 24.3351C44.3489 17.4819 45.2313 10.3981 46.1562 3.43451C46.2085 3.03844 46.1497 2.96053 46.1497 2.96053C46.1007 2.91832 45.8261 2.92157 45.6431 2.92157C42.424 2.94105 39.0905 2.96053 35.7471 2.91183C35.0052 2.90209 34.7372 3.07415 34.4889 3.7624C33.3156 6.99911 32.0835 10.2748 30.8939 13.4401C30.4102 14.7289 29.9265 16.0145 29.4428 17.3033C28.348 20.2284 27.2564 23.1567 26.1452 26.1337L25.0602 29.0425H29.5441C33.2077 29.0425 36.8714 29.0425 40.5317 29.0425H40.535H40.5415ZM21.3083 29.721H21.2855C16.8604 29.6853 12.3601 29.6885 8.0069 29.6918C6.60812 29.6918 5.21262 29.6918 3.81384 29.6918H3.60795L3.51971 29.5067C3.2844 29.0133 3.57526 28.6659 3.73214 28.4808C3.76809 28.4354 3.8073 28.3932 3.83345 28.3477C8.54615 20.7835 13.5268 12.8005 19.5109 3.22673C19.5468 3.17155 19.5795 3.11311 19.6122 3.05143C19.7952 2.72029 20.0436 2.26903 20.7299 2.26903H20.7364C23.5405 2.28202 26.2923 2.28202 29.2075 2.27877H32.5639L31.3645 5.50249C30.5932 7.58022 29.8383 9.60925 29.0801 11.6383C27.7532 15.1769 26.423 18.7155 25.0962 22.2542L22.7169 28.588C22.5208 29.1139 22.2953 29.7112 21.3051 29.7112L21.3083 29.721ZM12.1673 29.0392C15.1969 29.0392 18.2624 29.0457 21.292 29.0717H21.3116C21.8443 29.0717 21.9228 28.8639 22.109 28.3705L22.1221 28.338L24.4883 22.0366C25.8184 18.498 27.1453 14.9594 28.4722 11.4208C29.2337 9.39174 29.9853 7.36271 30.7566 5.28498L31.6292 2.93455H29.214C26.2988 2.93455 23.5438 2.9378 20.7364 2.92482H20.7331C20.4488 2.92482 20.3606 3.06117 20.1906 3.36958C20.1514 3.43775 20.1155 3.50593 20.073 3.57411C14.089 13.1479 9.105 21.1309 4.39557 28.6919C4.35309 28.76 4.29753 28.8282 4.2387 28.8964C4.18641 28.9613 4.15046 29.0068 4.12432 29.0425C5.41851 29.0425 6.71597 29.0425 8.01017 29.0425C9.3828 29.0425 10.7718 29.0425 12.1705 29.0425L12.1673 29.0392ZM46.4536 29.7177C46.1432 29.7177 45.7771 29.6723 45.5451 29.4191C45.2902 29.1366 45.3163 28.7308 45.3621 28.3737C46.166 22.1633 46.9569 15.9528 47.7511 9.73911L48.2381 5.93103C48.2642 5.72001 48.3034 5.50574 48.3394 5.29472C48.4211 4.82723 48.4995 4.38572 48.4668 3.96043C48.4178 3.35659 48.5191 2.94429 48.7838 2.6651C49.1368 2.29501 49.7087 2.24955 50.2741 2.26254C53.7024 2.33072 57.134 2.30474 60.0394 2.26903C60.9872 2.27228 61.3336 2.58069 61.4447 3.54164C61.8598 7.16792 62.3337 10.8494 62.7912 14.4107C62.9579 15.7093 63.1246 17.0079 63.288 18.3032C63.4187 19.3486 63.5494 20.3939 63.6801 21.4361C63.971 23.754 64.2684 26.1499 64.5822 28.5036C64.6181 28.7665 64.6377 29.1464 64.3991 29.4126C64.154 29.6885 63.7618 29.708 63.3827 29.7015C61.3205 29.682 59.2224 29.6853 57.1928 29.6885C55.6666 29.6885 54.1404 29.6885 52.6141 29.6853C50.6173 29.6788 48.5551 29.669 46.5255 29.7145C46.4994 29.7145 46.4732 29.7145 46.4438 29.7145L46.4536 29.7177ZM49.1205 3.90849C49.1597 4.41493 49.0714 4.91813 48.9865 5.4051C48.9505 5.60638 48.9146 5.81091 48.8884 6.01219L48.4015 9.82027C47.6073 16.0307 46.8131 22.2444 46.0124 28.4549C45.9732 28.7503 45.9797 28.9256 46.032 28.984C46.0516 29.0068 46.1432 29.0814 46.5223 29.0684C48.5583 29.023 50.6271 29.0327 52.6272 29.0392C54.1534 29.0457 55.6764 29.0457 57.2026 29.0425C59.2322 29.0392 61.3336 29.036 63.3991 29.0555C63.6998 29.062 63.873 29.036 63.9187 28.984C63.9285 28.9711 63.9841 28.8931 63.9416 28.5912C63.6279 26.2343 63.3272 23.8384 63.0396 21.5172C62.9089 20.4719 62.7781 19.4265 62.6474 18.3844C62.484 17.0858 62.3173 15.7905 62.1506 14.4919C61.6931 10.9273 61.2192 7.24259 60.8042 3.61306C60.729 2.95403 60.6309 2.90534 60.0557 2.91508C57.1438 2.95079 53.7057 2.97351 50.2709 2.90858C49.7087 2.8956 49.4113 2.95728 49.2675 3.10662C49.1401 3.23972 49.0943 3.50268 49.127 3.90524L49.1205 3.90849ZM67.2686 29.708C66.4156 29.708 66.3699 29.1236 66.3437 28.8087C66.3404 28.76 66.3372 28.7081 66.3306 28.6561C66.1019 26.8771 65.8731 25.098 65.6443 23.319C65.3992 21.4198 65.1541 19.5174 64.9122 17.6182C64.7292 16.193 64.5527 14.7711 64.3763 13.3459C64.02 10.4955 63.654 7.551 63.2585 4.65842L63.2357 4.47986C63.0984 3.47996 63.0298 2.97676 63.3305 2.63588C63.6377 2.28851 64.1442 2.28527 65.2652 2.28851L65.2914 2.61316V2.28851C66.0921 2.28851 66.8928 2.28851 67.6967 2.28851C69.8733 2.29176 72.1218 2.295 74.3311 2.26903C75.0632 2.26254 75.6351 2.4411 75.9717 3.34685C78.3575 9.78131 80.8086 16.3164 83.1748 22.6372L85.4592 28.7308C85.4984 28.8347 85.5246 28.9451 85.5605 29.0782C85.5769 29.1399 85.5932 29.208 85.6128 29.286L85.7239 29.695H81.1779C76.6188 29.695 71.9029 29.6918 67.2817 29.708H67.2751H67.2686ZM65.2619 2.93455C64.5201 2.93455 63.9318 2.93456 63.8207 3.06117C63.7161 3.18128 63.788 3.71695 63.8828 4.39221L63.9089 4.57076C64.3044 7.46659 64.6704 10.4144 65.0266 13.2647C65.2031 14.6899 65.3829 16.1119 65.5626 17.5371C65.8045 19.4362 66.0496 21.3387 66.2947 23.2378C66.5235 25.0169 66.7522 26.7959 66.981 28.5782C66.9875 28.6399 66.9941 28.7016 66.9973 28.7633C67.0202 29.0652 67.0169 29.062 67.2751 29.062C71.8963 29.0425 76.6156 29.0457 81.1747 29.0457H84.8742C84.8644 29.0165 84.8546 28.9873 84.8448 28.9581L82.5603 22.8645C80.1909 16.5437 77.7431 10.0086 75.354 3.57086C75.1612 3.05143 74.9684 2.91832 74.3801 2.91832C74.3638 2.91832 74.3507 2.91832 74.3344 2.91832C72.1186 2.94429 69.8668 2.94105 67.6902 2.9378C66.8895 2.9378 66.0888 2.9378 65.2881 2.9378H65.2619V2.93455ZM88.4692 29.7048C87.7143 29.7048 87.4855 29.26 87.3319 28.8444C84.5376 21.3419 81.2204 12.4596 77.815 3.45074C77.6941 3.13259 77.6058 2.80145 77.7856 2.54823C77.9784 2.27553 78.3477 2.27877 78.6516 2.27877C82.3152 2.29501 85.7141 2.29176 89.0379 2.27877H89.0477C89.6065 2.27877 89.9791 2.48979 90.2863 2.98325C94.7343 10.1189 99.1921 17.2514 103.715 24.4877L106.974 29.6983H102.575C97.7246 29.6983 93.146 29.6983 88.479 29.7112H88.4757L88.4692 29.7048ZM78.3379 2.9378C78.3477 2.9865 78.3673 3.07415 78.4229 3.22024C81.8283 12.2324 85.1455 21.1147 87.9398 28.6172C88.077 28.9873 88.1555 29.0522 88.4627 29.0522H88.4692C93.1361 29.0392 97.7181 29.0392 102.565 29.0392H105.787L103.15 24.8221C98.6267 17.5858 94.1689 10.4533 89.7209 3.31764C89.5314 3.01572 89.3712 2.92157 89.0411 2.92157H89.0313C85.7043 2.9378 82.3054 2.9378 78.6385 2.92157C78.5046 2.92157 78.3967 2.92482 78.3346 2.93455L78.3379 2.9378Z" fill="white"/>
<path d="M88.3516 61.1224C88.3516 59.629 88.0477 59.3271 86.577 59.3271C77.6549 59.3238 68.7361 59.3238 59.814 59.3271C58.3596 59.3271 58.072 59.5998 58.072 61.012C58.0655 69.9137 58.0655 78.8187 58.072 87.7205C58.072 89.2398 58.291 89.4346 59.8859 89.4346C64.3273 89.4379 68.7655 89.4346 73.2069 89.4346C77.6484 89.4346 82.0865 89.4346 86.528 89.4346C88.1098 89.4346 88.3549 89.1911 88.3549 87.5874C88.3582 78.7668 88.3582 69.943 88.3549 61.1224H88.3516ZM86.0704 86.2596C86.0704 86.9771 85.9234 87.2205 85.139 87.2173C77.1581 87.1848 69.1773 87.1881 61.1997 87.2141C60.497 87.2141 60.3238 87.0063 60.3238 86.331C60.3467 78.4032 60.3565 70.4754 60.314 62.5476C60.3107 61.6613 60.6604 61.5996 61.3696 61.6061C65.3176 61.6321 69.2688 61.6191 73.2167 61.6191C77.1647 61.6191 81.1159 61.6418 85.0638 61.5996C85.8613 61.5899 86.0737 61.8009 86.0704 62.5962C86.041 70.4851 86.0443 78.3707 86.0672 86.2596H86.0704Z" fill="white"/>
<path d="M80.8185 89.7593C79.5505 89.7593 78.2824 89.7593 77.0111 89.7593H73.207H69.478C66.2784 89.7593 63.0822 89.7593 59.8859 89.7593C58.108 89.7593 57.7453 89.4151 57.7453 87.7205C57.7387 78.8187 57.7387 69.9137 57.7453 61.012C57.7453 59.418 58.1734 59.0057 59.814 59.0024C68.7328 58.9992 77.6549 58.9992 86.577 59.0024C88.2242 59.0024 88.6785 59.4602 88.6785 61.1224C88.685 69.943 88.6817 78.7668 88.6785 87.5874C88.6785 89.3697 88.2961 89.756 86.5247 89.756C84.6227 89.756 82.7173 89.756 80.8153 89.756L80.8185 89.7593ZM73.207 89.11H77.0111C80.1845 89.11 83.3546 89.11 86.5247 89.11C87.9268 89.11 88.0248 89.0093 88.0248 87.5906C88.0281 78.7701 88.0281 69.9462 88.0248 61.1256C88.0248 59.8173 87.8614 59.655 86.577 59.6517C77.6549 59.6485 68.7361 59.6485 59.814 59.6517C58.5296 59.6517 58.3989 59.7783 58.3989 61.012C58.3924 69.9137 58.3924 78.8155 58.3989 87.7205C58.3989 89.058 58.4545 89.11 59.8859 89.11C63.0822 89.11 66.2784 89.11 69.4747 89.11H73.2037H73.207ZM85.1587 87.5419H85.139C77.7334 87.5127 69.9028 87.5127 61.1997 87.5387H61.1866C60.8696 87.5387 60.5167 87.503 60.2748 87.2628C60.0297 87.0193 59.997 86.6524 59.997 86.3278C60.0166 79.3025 60.0297 70.9851 59.9872 62.5476C59.9872 62.0703 60.0755 61.7684 60.2846 61.5606C60.5526 61.2944 60.9317 61.2782 61.3729 61.2782C64.311 61.2977 67.2948 61.2944 70.1839 61.2912H73.22C74.256 61.2912 75.2888 61.2912 76.3248 61.2912C79.191 61.2944 82.1519 61.3009 85.0639 61.2685C85.4299 61.2685 85.8319 61.2977 86.0999 61.5606C86.3679 61.8236 86.4006 62.2294 86.4006 62.593C86.3711 69.9722 86.3711 77.7117 86.4006 86.2531C86.4006 86.6816 86.3548 87.016 86.1162 87.253C85.8646 87.503 85.4953 87.5387 85.1619 87.5387L85.1587 87.5419ZM73.1089 86.8699C77.2791 86.8699 81.2663 86.8764 85.1423 86.8927H85.1554C85.4855 86.8927 85.6064 86.8407 85.6521 86.7985C85.7371 86.7141 85.7469 86.4511 85.7469 86.2596C85.7208 77.7182 85.7208 69.9754 85.7469 62.5962C85.7469 62.2846 85.7142 62.0995 85.6391 62.0281C85.5639 61.9567 85.3711 61.9242 85.0704 61.9242C82.1552 61.9535 79.191 61.9502 76.3215 61.947C75.2855 61.947 74.2528 61.947 73.2168 61.947H70.1839C67.2948 61.9502 64.3077 61.9535 61.3664 61.934C61.1017 61.934 60.8337 61.9372 60.7454 62.0249C60.6964 62.0736 60.6376 62.2034 60.6409 62.5476C60.6833 70.9883 60.6703 79.309 60.6507 86.3343C60.6507 86.5907 60.6768 86.7498 60.7356 86.8083C60.7748 86.8472 60.886 86.8927 61.1866 86.8927H61.1964C65.347 86.8797 69.3015 86.8732 73.1056 86.8732L73.1089 86.8699Z" fill="white"/>
<path d="M44.4765 77.5039C42.5515 77.5234 41.0188 79.0622 41.0122 80.9776C41.0057 82.9385 42.6071 84.5357 44.5615 84.513C46.4178 84.4935 48.0584 82.8541 48.0617 81.0101C48.0649 79.0752 46.4407 77.4812 44.4765 77.5007V77.5039ZM44.5778 82.2048C43.8098 82.247 43.3882 81.7892 43.2509 81.0393C43.313 80.3088 43.7019 79.7959 44.4503 79.7634C45.1857 79.7277 45.6922 80.1433 45.7315 80.9257C45.7707 81.7016 45.3393 82.1626 44.5778 82.2048Z" fill="white"/>
<path d="M44.5223 84.8376C43.5124 84.8376 42.5614 84.4448 41.8358 83.7306C41.0907 82.9969 40.6822 82.0165 40.6854 80.9744C40.692 78.8674 42.3555 77.1988 44.4733 77.176C44.4733 77.176 44.4994 77.176 44.5125 77.176C45.5387 77.176 46.5093 77.5753 47.2447 78.2993C47.9833 79.0265 48.3885 79.9907 48.3885 81.0101C48.3852 83.0261 46.5976 84.8117 44.5648 84.8344C44.5517 84.8344 44.5353 84.8344 44.5223 84.8344V84.8376ZM44.4798 77.8286C42.7248 77.8448 41.3456 79.231 41.3391 80.9809C41.3391 81.8477 41.6757 82.6625 42.2967 83.2729C42.898 83.8637 43.6856 84.1916 44.5223 84.1916C44.5353 84.1916 44.5452 84.1916 44.5582 84.1916C46.2479 84.1721 47.7316 82.6885 47.7349 81.0133C47.7349 80.1693 47.3983 79.3706 46.7871 78.7668C46.1662 78.1565 45.3491 77.8221 44.4831 77.8318L44.4798 77.8286ZM44.4798 82.5327C43.6562 82.5327 43.0941 82.0165 42.9274 81.0977L42.9209 81.0555V81.0133C43.0058 80.0686 43.568 79.481 44.434 79.4388C45.3753 79.3933 46.0093 79.9712 46.055 80.9094C46.1008 81.8574 45.5419 82.4775 44.5942 82.5294C44.555 82.5294 44.519 82.5294 44.4831 82.5294L44.4798 82.5327ZM43.5778 81.0263C43.7412 81.8314 44.2151 81.9029 44.555 81.8834C45.1432 81.8509 45.4276 81.5328 45.3981 80.9419C45.3687 80.364 45.0354 80.0621 44.4602 80.0881C43.9373 80.1141 43.6399 80.429 43.5778 81.0263Z" fill="white"/>
<path d="M81.9362 81.4516C81.4035 78.0591 80.812 74.673 80.2466 71.287C80.0439 70.0663 79.3413 69.4008 78.0732 69.4755C77.3836 69.5177 77.2039 69.3034 77.1908 68.6087C77.1516 66.2355 75.4946 64.5506 73.2723 64.5084C71.0173 64.4662 69.2655 66.1868 69.2132 68.6022C69.1969 69.3034 69.0237 69.5177 68.3308 69.4755C67.0758 69.3975 66.3503 70.0274 66.1444 71.2642C65.5888 74.6113 64.994 77.9552 64.4744 81.3088C64.2129 83.0001 64.9842 83.828 66.7 83.841C68.8178 83.8572 70.9356 83.8442 73.0533 83.8442C75.292 83.8442 77.534 83.8605 79.7759 83.8377C81.3447 83.8215 82.1617 82.9417 81.9264 81.4516H81.9362ZM73.2592 66.9108C74.2135 66.94 75.0044 67.7646 74.9391 68.758C74.8476 70.1312 73.7331 69.1378 73.1775 69.5339C72.6481 69.1443 71.4879 70.1345 71.5107 68.6703C71.5271 67.6574 72.3016 66.8783 73.2625 66.9075L73.2592 66.9108ZM79.0994 81.6172C74.9946 81.5977 70.8865 81.6074 66.7229 81.6074C67.236 78.4714 67.7262 75.4424 68.2295 72.4167C68.2851 72.0823 68.272 71.6376 68.8276 71.6895C69.442 71.748 69.1805 72.2317 69.1969 72.5304C69.2296 73.2868 69.2296 74.0659 70.2264 74.1666C71.1937 74.264 71.5925 73.6406 71.5009 72.8096C71.3866 71.7837 71.8408 71.5564 72.7232 71.6798C72.9618 71.7123 73.2167 71.7155 73.4553 71.6798C74.5436 71.5077 75.1319 71.7804 74.9685 73.0465C74.877 73.751 75.3639 74.1958 76.096 74.1763C76.8281 74.1568 77.1124 73.6731 77.2235 72.9849C77.2954 72.5498 76.8117 71.7577 77.6092 71.7317C78.4556 71.7025 78.1353 72.5823 78.2236 73.0628C78.6975 75.6469 79.1158 78.2376 79.557 80.8283C79.6256 81.2276 79.8119 81.6172 79.0994 81.6139V81.6172Z" fill="white"/>
<path d="M77.0601 84.1754C76.3999 84.1754 75.743 84.1754 75.0959 84.1754C74.4194 84.1754 73.7494 84.1754 73.0599 84.1754H71.1741C69.6838 84.1786 68.1936 84.1819 66.7033 84.1721C65.7294 84.1656 65.0169 83.9059 64.5855 83.3995C64.1606 82.9028 64.0168 82.1853 64.1574 81.2666C64.5038 79.0168 64.8927 76.7345 65.2685 74.5269C65.4548 73.4231 65.6444 72.3226 65.8274 71.2188C66.0627 69.8066 66.9647 69.0729 68.357 69.1606C68.6642 69.18 68.7622 69.1346 68.7916 69.1054C68.8341 69.0664 68.8831 68.9495 68.8897 68.6054C68.9452 66.0472 70.8146 64.1513 73.2788 64.1935C75.694 64.239 77.4752 66.0959 77.5176 68.6119C77.5242 68.9495 77.5732 69.0664 77.6157 69.1054C77.6484 69.1346 77.7464 69.18 78.0536 69.1606C79.4328 69.0794 80.3283 69.8163 80.5668 71.2415C80.7368 72.2479 80.9067 73.2543 81.0767 74.264C81.4721 76.6047 81.8839 79.0265 82.2565 81.4094C82.3839 82.2113 82.2303 82.893 81.8153 83.38C81.3806 83.8897 80.678 84.1624 79.7858 84.1721C78.8805 84.1819 77.9654 84.1851 77.0601 84.1851V84.1754ZM73.1285 83.5196C73.7854 83.5196 74.4423 83.5196 75.0992 83.5196C76.6352 83.5196 78.2203 83.5261 79.7825 83.5099C80.4819 83.5034 81.0146 83.3086 81.3218 82.9482C81.6127 82.6073 81.714 82.1171 81.6159 81.4971C81.2434 79.1142 80.8316 76.6956 80.4361 74.3581C80.2662 73.3517 80.0962 72.3421 79.9263 71.3357C79.7433 70.2384 79.1452 69.7319 78.0961 69.7969C77.802 69.8163 77.4294 69.8034 77.1745 69.5696C76.913 69.3294 76.8738 68.9495 76.8673 68.6119C76.8313 66.4238 75.3541 64.8688 73.2723 64.8298C73.2461 64.8298 73.2233 64.8298 73.1971 64.8298C71.1251 64.8298 69.5923 66.4076 69.5466 68.6087C69.54 68.969 69.4943 69.3359 69.2361 69.5729C68.9812 69.8066 68.6119 69.8163 68.3177 69.7969C67.2327 69.7319 66.6575 70.2124 66.4745 71.313C66.2915 72.4167 66.1019 73.5205 65.9156 74.6243C65.5398 76.8287 65.1542 79.1077 64.8077 81.3542C64.6966 82.0782 64.7914 82.6236 65.0855 82.9677C65.3895 83.3216 65.9385 83.5066 66.7131 83.5131C68.2001 83.5261 69.6904 83.5228 71.1774 83.5196H73.0631C73.086 83.5196 73.1056 83.5196 73.1285 83.5196ZM79.1092 81.9418H79.0962C76.0306 81.9288 72.8997 81.9288 69.8701 81.9321H66.3372L66.7425 79.4583C67.1347 77.0592 67.517 74.712 67.906 72.3648L67.9223 72.2544C67.9615 71.9655 68.0628 71.2935 68.8603 71.3681C69.1184 71.3941 69.308 71.4818 69.4289 71.6376C69.6119 71.8681 69.5695 72.1473 69.54 72.3486C69.5302 72.4135 69.5204 72.4817 69.5237 72.5206V72.6018C69.5629 73.4589 69.6381 73.7868 70.2623 73.8517C70.5859 73.8841 70.8277 73.8225 70.9813 73.6699C71.148 73.5043 71.2166 73.2121 71.1774 72.8518C71.1153 72.2804 71.2101 71.8778 71.4748 71.6214C71.8278 71.2805 72.3833 71.3097 72.7723 71.3649C72.9945 71.3941 73.2167 71.3941 73.4063 71.3649C73.8736 71.2902 74.5436 71.2383 74.9652 71.6441C75.2757 71.9428 75.3803 72.4167 75.2953 73.0953C75.2659 73.3193 75.3149 73.5076 75.4325 73.6374C75.5698 73.79 75.8084 73.8712 76.0895 73.8614C76.4914 73.8517 76.7823 73.6894 76.9032 72.9427C76.9163 72.8648 76.8902 72.7219 76.8673 72.5921C76.815 72.3064 76.7529 71.946 76.9719 71.6798C77.1059 71.5142 77.3183 71.4266 77.5993 71.4168C77.8935 71.4071 78.1255 71.4818 78.2889 71.6441C78.5602 71.9135 78.5504 72.3226 78.5406 72.6505C78.5373 72.7901 78.534 72.9232 78.5504 73.0141C78.8772 74.7996 79.1844 76.6177 79.4785 78.374C79.6125 79.1758 79.7498 79.981 79.8871 80.7828C79.8936 80.8315 79.9034 80.877 79.9132 80.9224C79.9622 81.1594 80.0243 81.4549 79.8282 81.6918C79.6419 81.9191 79.3347 81.9451 79.1158 81.9451L79.1092 81.9418ZM72.9585 81.2828C75.0012 81.2828 77.0634 81.2828 79.0994 81.2925C79.204 81.2958 79.2726 81.2828 79.3021 81.2731C79.3021 81.2179 79.2792 81.1205 79.2661 81.0491C79.253 80.9939 79.2432 80.9387 79.2334 80.8835C79.0962 80.0816 78.9622 79.2765 78.8249 78.4746C78.5308 76.7183 78.2236 74.9035 77.9 73.1212C77.8706 72.9622 77.8771 72.7901 77.8804 72.6245C77.8869 72.4427 77.8935 72.1668 77.8216 72.0954C77.7922 72.0661 77.7203 72.0564 77.6157 72.0564C77.5046 72.0596 77.4719 72.0824 77.4719 72.0824C77.4457 72.1311 77.485 72.3518 77.5078 72.4687C77.5405 72.657 77.5765 72.8485 77.5438 73.0336C77.485 73.3874 77.3117 74.4653 76.1025 74.4977C75.6188 74.5107 75.2103 74.3549 74.9423 74.0595C74.6939 73.7868 74.5894 73.4102 74.6417 73.0011C74.6809 72.6894 74.6907 72.2772 74.5044 72.0986C74.3508 71.9493 74.0109 71.9136 73.5043 71.9947C73.2494 72.0337 72.9618 72.0369 72.6775 71.9947C72.2886 71.9428 72.0369 71.9687 71.9258 72.0759C71.818 72.1798 71.7853 72.4167 71.8212 72.7706C71.8833 73.329 71.7493 73.8062 71.4388 74.1179C71.233 74.3224 70.8473 74.5529 70.1904 74.488C68.9452 74.3614 68.8995 73.355 68.8701 72.6213V72.5434C68.8635 72.4427 68.8766 72.3453 68.8897 72.2479C68.8995 72.1798 68.9158 72.0694 68.906 72.0272C68.8995 72.0272 68.8668 72.0142 68.7916 72.0077C68.625 71.9915 68.6119 71.9882 68.5661 72.3356C68.5596 72.3778 68.5531 72.4232 68.5465 72.4622C68.1543 74.8094 67.772 77.1566 67.383 79.5524L67.102 81.2763H69.8669C70.8865 81.2763 71.9193 81.2763 72.9553 81.2763L72.9585 81.2828ZM73.1742 69.9397L72.9814 69.8001C72.8997 69.7384 72.6808 69.7709 72.4879 69.8001C72.1742 69.8456 71.7853 69.9008 71.4944 69.6443C71.2722 69.4495 71.1741 69.1411 71.1807 68.6736C71.1905 68.0762 71.4225 67.5308 71.8376 67.138C72.2265 66.7712 72.7298 66.5699 73.269 66.5926C73.8213 66.6089 74.3541 66.8556 74.7299 67.2679C75.1123 67.6867 75.3018 68.2256 75.2626 68.7872C75.2332 69.2093 75.1123 69.4982 74.8933 69.6735C74.5894 69.9137 74.2004 69.8521 73.89 69.8066C73.6775 69.7741 73.4586 69.7384 73.3638 69.8066L73.171 69.9462L73.1742 69.9397ZM73.5501 69.1119C73.7037 69.1119 73.8573 69.1346 73.9946 69.1573C74.1874 69.1865 74.4096 69.2222 74.488 69.1573C74.5175 69.1346 74.5926 69.0437 74.6122 68.7353C74.6384 68.3522 74.5077 67.9821 74.2462 67.6964C73.988 67.414 73.6253 67.2452 73.2494 67.2322C72.8801 67.2127 72.55 67.3523 72.2918 67.599C72.0042 67.8717 71.8441 68.2548 71.8376 68.6736C71.831 69.0437 71.9127 69.1346 71.9291 69.1476C71.9944 69.206 72.2167 69.1735 72.3964 69.1476C72.635 69.1151 72.9193 69.0729 73.1775 69.1671C73.2984 69.1216 73.4259 69.1054 73.5501 69.1054V69.1119Z" fill="white"/>
</svg>
