<svg width="23" height="27" viewBox="0 0 23 27" fill="none" xmlns="http://www.w3.org/2000/svg">
<path d="M11.2045 0.607378C15.6579 0.594307 19.2993 3.89652 19.6999 8.12059C19.8422 9.61832 19.5058 11.0146 18.9682 12.3831C18.2211 14.286 17.1793 16.0328 16.0508 17.732C14.8644 19.5196 13.5673 21.2264 12.1929 22.8756C12.0088 23.0963 11.8046 23.2739 11.5015 23.3062C11.1178 23.3469 10.8355 23.1862 10.5965 22.8995C8.77895 20.7159 7.08821 18.4409 5.62641 16.0059C4.7501 14.5459 3.99445 13.0312 3.44995 11.4128C1.9866 7.05881 4.55442 2.38189 8.80524 1.01256C9.63901 0.744233 10.4913 0.599689 11.2045 0.607378ZM11.3862 12.2616C13.2579 12.2609 14.7832 10.757 14.7924 8.90251C14.8017 7.04497 13.261 5.51265 11.3831 5.51342C9.51835 5.51342 7.98772 7.02575 7.97689 8.87714C7.96606 10.7362 9.50366 12.2624 11.3862 12.2616Z" fill="#FB7125"/>
<path d="M11.281 24.9873C13.4814 24.9119 15.654 24.7159 17.733 23.9739C18.3974 23.7363 19.0077 23.3496 19.6411 23.0282C19.6914 23.0029 19.7331 22.9583 19.7765 22.9206C20.42 22.3686 20.4145 21.9234 19.7579 21.3898C19.0177 20.7886 18.1437 20.4626 17.2465 20.1819C16.7662 20.0312 16.5133 19.6545 16.559 19.1801C16.5992 18.7619 16.9317 18.4297 17.3773 18.3782C17.4894 18.3651 17.6124 18.3728 17.7199 18.4051C18.8352 18.738 19.9087 19.164 20.8338 19.889C21.4803 20.3965 21.9699 21.0085 22.0898 21.8519C22.195 22.5946 21.9483 23.232 21.4881 23.7986C20.7904 24.6567 19.8383 25.1426 18.8321 25.5339C17.238 26.1551 15.5728 26.4727 13.8743 26.6372C11.8162 26.8363 9.76197 26.8125 7.71467 26.5188C5.87079 26.2543 4.07177 25.8361 2.43131 24.9104C1.87211 24.5944 1.37402 24.203 0.990392 23.6825C0.20071 22.6107 0.288882 21.3544 1.22861 20.3534C1.94482 19.5907 2.85747 19.1355 3.81345 18.755C4.11741 18.6342 4.43065 18.5335 4.74312 18.4351C5.30154 18.2598 5.82129 18.5066 5.98062 19.0133C6.13686 19.5115 5.85455 19.979 5.3232 20.1889C4.62633 20.4641 3.93333 20.7555 3.25889 21.0792C2.99669 21.2053 2.76698 21.4206 2.5597 21.6305C2.22712 21.9664 2.19928 22.3247 2.54268 22.6438C2.90388 22.9798 3.31226 23.2896 3.74848 23.518C4.98443 24.1646 6.33254 24.4829 7.70539 24.6597C8.89107 24.8127 10.0884 24.8804 11.281 24.9857V24.9873Z" fill="#1F1F1F"/>
</svg>
