<svg width="50" height="55" viewBox="0 0 50 55" fill="none" xmlns="http://www.w3.org/2000/svg">
<rect width="50" height="55" rx="8" fill="#D9D9D9"/>
<path d="M35.3125 24.5938H28.2812V17.5625C28.2812 16.6997 27.5815 16 26.7188 16H25.1562C24.2935 16 23.5938 16.6997 23.5938 17.5625V24.5938H16.5625C15.6997 24.5938 15 25.2935 15 26.1562V27.7188C15 28.5815 15.6997 29.2812 16.5625 29.2812H23.5938V36.3125C23.5938 37.1753 24.2935 37.875 25.1562 37.875H26.7188C27.5815 37.875 28.2812 37.1753 28.2812 36.3125V29.2812H35.3125C36.1753 29.2812 36.875 28.5815 36.875 27.7188V26.1562C36.875 25.2935 36.1753 24.5938 35.3125 24.5938Z" fill="#A09F9F"/>
</svg>
