<svg width="37" height="31" viewBox="0 0 37 31" fill="none" xmlns="http://www.w3.org/2000/svg">
<path d="M36.299 10.5336C36.5809 10.2975 37 10.5184 37 10.8916V26.4688C37 28.4873 35.4463 30.125 33.5312 30.125H3.46875C1.55371 30.125 0 28.4873 0 26.4688V10.8992C0 10.5184 0.411914 10.3051 0.700977 10.5412C2.31973 11.8666 4.46602 13.55 11.8371 19.1943C13.3619 20.3674 15.9346 22.8354 18.5 22.8201C21.0799 22.843 23.7031 20.3217 25.1701 19.1943C32.5412 13.55 34.6803 11.859 36.299 10.5336ZM18.5 20.375C20.1766 20.4055 22.5902 18.1508 23.8043 17.2215C33.3939 9.88613 34.1238 9.24629 36.3352 7.41816C36.7543 7.07539 37 6.54219 37 5.97852V4.53125C37 2.5127 35.4463 0.875 33.5312 0.875H3.46875C1.55371 0.875 0 2.5127 0 4.53125V5.97852C0 6.54219 0.245703 7.06777 0.664844 7.41816C2.87617 9.23867 3.60606 9.88613 13.1957 17.2215C14.4098 18.1508 16.8234 20.4055 18.5 20.375Z" fill="#FB7125"/>
</svg>
