<svg width="20" height="20" viewBox="0 0 20 20" fill="none" xmlns="http://www.w3.org/2000/svg">
<path d="M6.7214 11.5025H4.67328C4.51163 11.5025 4.38069 11.3715 4.38069 11.2099V10.6248C4.38069 10.4631 4.51163 10.3322 4.67328 10.3322H6.7214V7.99165H4.67328C4.51163 7.99165 4.38069 7.86072 4.38069 7.69908V7.11394C4.38069 6.9523 4.51163 6.82137 4.67328 6.82137H6.7214V4.48083H4.67328C4.51163 4.48083 4.38069 4.3499 4.38069 4.18826V3.60312C4.38069 3.44148 4.51163 3.31055 4.67328 3.31055H6.7214V2.14028C6.7214 1.49406 6.1973 0.970001 5.55105 0.970001H2.03998C1.39373 0.970001 0.869629 1.49406 0.869629 2.14028V18.5241C0.869629 18.6254 0.902911 18.7158 0.927049 18.8094L6.7214 13.0158V11.5025ZM18.425 13.843H17.2546V15.891C17.2546 16.0526 17.1237 16.1836 16.962 16.1836H16.3768C16.2152 16.1836 16.0842 16.0526 16.0842 15.891V13.843H13.7435V15.891C13.7435 16.0526 13.6126 16.1836 13.4509 16.1836H12.8658C12.7041 16.1836 12.5732 16.0526 12.5732 15.891V13.843H10.2325V15.891C10.2325 16.0526 10.1015 16.1836 9.93988 16.1836H9.3547C9.19305 16.1836 9.06211 16.0526 9.06211 15.891V13.843H7.54906L1.75471 19.637C1.84834 19.6611 1.93904 19.6944 2.03998 19.6944H18.425C19.0712 19.6944 19.5953 19.1703 19.5953 18.5241V15.0133C19.5953 14.3671 19.0712 13.843 18.425 13.843Z" fill="#FB7125"/>
</svg>
