<svg width="104" height="104" viewBox="0 0 104 104" fill="none" xmlns="http://www.w3.org/2000/svg">
<g clip-path="url(#clip0_101_1868)">
<path d="M0.0407332 103.148C0.312118 103.419 0.580789 103.688 0.852173 103.959C0.157429 104.114 -0.113956 103.843 0.0407332 103.148Z" fill="#E5E5E5"/>
<path d="M0.0407104 73.3008C0.366372 73.7079 0.339234 74.1124 0.0407104 74.5195V73.3008Z" fill="#0E0E0E"/>
<path d="M56.5131 87.8795C56.5131 89.8719 56.4942 91.8669 56.524 93.8592C56.5321 94.4319 56.4534 94.6871 55.775 94.6735C53.243 94.6274 50.7082 94.6409 48.1735 94.6681C47.6389 94.6735 47.4978 94.5161 47.5005 93.9895C47.5222 89.8664 47.5222 85.7461 47.5005 81.623C47.4978 81.0584 47.6986 80.9634 48.1979 80.9688C50.7327 80.9905 53.2647 80.996 55.7994 80.9661C56.3747 80.958 56.5349 81.1262 56.5267 81.6963C56.4941 83.7564 56.5131 85.8193 56.5131 87.8795Z" fill="#FEFEFE"/>
<path d="M56.8497 53.9611C56.8497 55.2776 56.8687 56.5967 56.8442 57.9132C56.8225 59.0668 56.3177 59.5852 55.1616 59.5988C53.0665 59.6232 50.9715 59.6232 48.8791 59.5988C47.6741 59.5852 47.1884 59.0695 47.1802 57.829C47.1667 55.2613 47.1667 52.6935 47.1802 50.1257C47.1856 48.85 47.6958 48.3424 48.9632 48.3343C51.023 48.3207 53.0855 48.318 55.1454 48.3343C56.2933 48.3451 56.8225 48.8636 56.8442 50.0063C56.8687 51.3228 56.8497 52.6419 56.8497 53.9584V53.9611Z" fill="black"/>
<path d="M56.8496 68.8276C56.8496 70.1468 56.8686 71.4632 56.8442 72.7824C56.8225 73.9278 56.3014 74.4626 55.1562 74.4761C53.0611 74.5006 50.966 74.5006 48.8709 74.4761C47.723 74.4626 47.1911 73.9333 47.1802 72.7878C47.1585 70.1522 47.1612 67.5166 47.1802 64.8809C47.1883 63.7301 47.7175 63.2062 48.8655 63.1926C50.9606 63.1709 53.0557 63.1709 55.1508 63.1926C56.2987 63.2035 56.8198 63.7301 56.8415 64.8755C56.8659 66.192 56.8469 67.5111 56.8469 68.8303L56.8496 68.8276Z" fill="black"/>
<path d="M56.8496 24.3151C56.8496 25.5989 56.8659 26.8828 56.8442 28.1667C56.8252 29.3827 56.3258 29.8659 55.0965 29.8713C53.0367 29.8822 50.9769 29.8822 48.917 29.8713C47.6931 29.8659 47.1883 29.3773 47.1802 28.1586C47.1639 25.5582 47.1639 22.9552 47.1802 20.3548C47.1883 19.1415 47.6958 18.6557 48.9252 18.6475C50.985 18.6339 53.0448 18.6339 55.1046 18.6475C56.3286 18.6557 56.8252 19.1469 56.8442 20.363C56.8632 21.6794 56.8496 22.9986 56.8496 24.3151Z" fill="black"/>
<path d="M60.3369 68.7298C60.3369 67.446 60.3261 66.1621 60.3396 64.8782C60.3532 63.7246 60.8553 63.2034 62.0087 63.1899C64.1038 63.1682 66.1961 63.1682 68.2912 63.1899C69.4419 63.2007 69.9548 63.711 69.9657 64.8755C69.9874 67.5111 69.9901 70.1467 69.9657 72.7796C69.9548 73.9848 69.4337 74.4652 68.1935 74.4761C66.1663 74.4924 64.139 74.4924 62.1145 74.4761C60.839 74.4652 60.3478 73.9577 60.3396 72.6819C60.3288 71.3655 60.3396 70.0463 60.3396 68.7298H60.3369Z" fill="black"/>
<path d="M43.6902 68.7869C43.6902 70.1033 43.701 71.4225 43.6875 72.7389C43.6766 73.9115 43.1908 74.4571 42.0565 74.4707C39.9288 74.5005 37.8011 74.4978 35.6735 74.4707C34.588 74.4571 34.0723 73.9278 34.0615 72.8231C34.037 70.1549 34.037 67.484 34.0615 64.8158C34.0723 63.711 34.5907 63.2007 35.6898 63.1899C37.8174 63.1655 39.9451 63.1655 42.0727 63.1899C43.1637 63.2035 43.6712 63.7382 43.6848 64.8321C43.7038 66.1485 43.6902 67.4677 43.6902 68.7841V68.7869Z" fill="black"/>
<path d="M43.6902 53.9285C43.6902 55.245 43.7011 56.5642 43.6875 57.8806C43.6767 59.0614 43.2044 59.5825 42.0538 59.5988C39.9261 59.6259 37.7985 59.6259 35.6708 59.5988C34.5663 59.5852 34.0696 59.0858 34.0588 57.9648C34.0344 55.2966 34.0344 52.6284 34.0588 49.9602C34.0696 48.8527 34.588 48.3506 35.6871 48.3397C37.8147 48.318 39.9424 48.318 42.0701 48.3397C43.1529 48.3506 43.6685 48.888 43.6848 49.9792C43.7038 51.2956 43.6902 52.6148 43.6902 53.9313V53.9285Z" fill="black"/>
<path d="M60.3369 53.9828C60.3369 52.6664 60.3261 51.3472 60.3396 50.0307C60.3532 48.8771 60.858 48.3478 62.0005 48.337C64.0956 48.318 66.188 48.3207 68.2831 48.337C69.4419 48.3451 69.9575 48.8418 69.9684 50.0063C69.9928 52.6419 69.9928 55.2748 69.9684 57.9105C69.9575 59.1401 69.4717 59.5934 68.2071 59.6042C66.1798 59.6205 64.1553 59.6205 62.1281 59.6042C60.7901 59.5934 60.3451 59.1129 60.3396 57.734C60.3342 56.4854 60.3396 55.2341 60.3396 53.9855L60.3369 53.9828Z" fill="black"/>
<path d="M47.1775 39.0865C47.1775 37.8027 47.1639 36.5188 47.1802 35.2349C47.1965 34.008 47.6958 33.5059 48.9008 33.4977C50.9959 33.4869 53.0882 33.4841 55.1833 33.4977C56.2851 33.5059 56.8279 33.9999 56.8388 35.0883C56.8659 37.7565 56.8632 40.4274 56.8388 43.0956C56.8306 44.2004 56.3177 44.7161 55.2213 44.7269C53.0584 44.7514 50.8982 44.7514 48.7352 44.7269C47.7067 44.7134 47.2019 44.1868 47.1802 43.1391C47.1503 41.7873 47.1721 40.4356 47.1721 39.0838L47.1775 39.0865Z" fill="black"/>
<path d="M60.3369 24.2499C60.3369 22.966 60.3288 21.6821 60.3369 20.401C60.3451 19.1605 60.8173 18.6584 62.0222 18.6502C64.1146 18.6339 66.2097 18.6339 68.3021 18.6502C69.4799 18.6611 69.9548 19.1225 69.9657 20.3223C69.9874 22.9552 69.9901 25.5908 69.9657 28.2237C69.9548 29.4153 69.4717 29.8632 68.2804 29.8713C66.188 29.8822 64.0929 29.8849 62.0005 29.8713C60.8444 29.8632 60.3532 29.3664 60.3396 28.202C60.3261 26.8855 60.3369 25.5691 60.3369 24.2499Z" fill="black"/>
<path d="M43.6902 24.2852C43.6902 25.6017 43.7038 26.9208 43.6875 28.2373C43.6739 29.3447 43.1746 29.8605 42.089 29.8686C39.9288 29.8849 37.7659 29.8876 35.6057 29.8686C34.6042 29.8605 34.0805 29.3882 34.0696 28.392C34.037 25.6234 34.0425 22.8547 34.0696 20.0834C34.0805 19.166 34.6151 18.6557 35.5541 18.6502C37.7496 18.6421 39.9451 18.6312 42.1379 18.653C43.1719 18.6638 43.6685 19.185 43.6848 20.2327C43.7065 21.5844 43.6902 22.9335 43.6902 24.2852Z" fill="black"/>
<path d="M60.3369 39.1625C60.3369 37.8108 60.3233 36.4591 60.3423 35.11C60.3586 34.0216 60.877 33.5058 61.9679 33.5004C64.0956 33.4868 66.2232 33.4841 68.3509 33.5004C69.45 33.5086 69.9575 33.9917 69.9684 35.1182C69.9955 37.7864 69.9928 40.4546 69.9684 43.1228C69.9575 44.2438 69.4663 44.7188 68.3455 44.7324C66.2178 44.7541 64.0902 44.7568 61.9625 44.7324C60.8173 44.7188 60.3532 44.2058 60.3423 43.0169C60.3315 41.733 60.3423 40.4491 60.3423 39.1652L60.3369 39.1625Z" fill="black"/>
<path d="M43.6902 39.1625C43.6902 40.4464 43.6984 41.7303 43.6875 43.0142C43.6766 44.203 43.2126 44.7161 42.0646 44.7296C39.937 44.7541 37.8093 44.7513 35.6817 44.7296C34.5608 44.7188 34.0696 44.241 34.0588 43.12C34.0344 40.4518 34.0316 37.7836 34.0588 35.1154C34.0696 33.9537 34.5798 33.5031 35.7766 33.4977C37.8365 33.4895 39.8963 33.4895 41.9561 33.4977C43.1746 33.5031 43.6712 33.9971 43.6848 35.2104C43.6984 36.5269 43.6875 37.8461 43.6875 39.1625H43.6902Z" fill="black"/>
<path d="M103.984 96.541C103.978 95.1377 103.506 94.6627 102.092 94.6572C99.7583 94.6491 97.4244 94.6274 95.0904 94.6708C94.3984 94.6844 94.1732 94.5324 94.1867 93.7995C94.2383 91.4652 94.2681 89.1281 94.1759 86.7965C94.1352 85.7813 94.4934 85.4963 95.4215 85.2602C99.6714 84.1799 102.461 81.4791 103.582 77.242C104.706 72.9887 103.533 69.2836 100.391 66.2435C99.7664 65.6409 99.4435 65.0682 99.343 64.2132C98.936 60.7307 95.9724 58.2769 92.4526 58.4262C89.0141 58.5701 86.2867 61.2708 86.1239 64.7316C86.1022 65.2175 85.9421 65.5161 85.5811 65.8336C82.1183 68.8764 80.8102 72.7145 81.9201 77.1552C83.0328 81.604 86.0371 84.34 90.5095 85.3688C91.2395 85.5371 91.386 85.8031 91.3752 86.4844C91.3345 88.9191 91.3291 91.3566 91.3752 93.7914C91.3888 94.527 91.1472 94.6735 90.4633 94.6708C86.303 94.641 82.1427 94.6545 77.9796 94.6545C76.9701 94.6545 76.4653 94.1659 76.4653 93.1888V14.7307C76.4653 14.4267 76.4762 14.12 76.4653 13.816C76.4165 12.6163 75.9741 12.163 74.7855 12.1494C73.263 12.1331 71.7378 12.0897 70.2208 12.1657C69.3768 12.2091 69.2383 11.8997 69.2492 11.1478C69.2899 8.10231 69.2682 5.05682 69.2655 2.01404C69.2655 0.418009 68.8394 0 67.2084 0C57.0939 0 46.9794 0 36.8649 0C35.1307 0 34.7535 0.385437 34.7535 2.16062C34.7535 5.10296 34.6992 8.04802 34.7834 10.9904C34.8132 12.0164 34.493 12.2308 33.5513 12.1657C32.3056 12.0788 31.0491 12.144 29.798 12.144C27.8468 12.144 27.5537 12.4344 27.5537 14.367C27.5537 25.7347 27.5537 37.1023 27.5537 48.4727C27.5537 63.5292 27.5483 78.5856 27.5673 93.6421C27.5673 94.3804 27.4668 94.6898 26.6038 94.679C22.2753 94.6274 17.944 94.6274 13.6154 94.679C12.7578 94.6898 12.6357 94.3885 12.6492 93.6475C12.6927 91.381 12.7198 89.1118 12.6384 86.8481C12.6031 85.8763 12.8528 85.5099 13.8488 85.271C18.0769 84.2532 20.8722 81.5768 22.0337 77.4049C23.1708 73.3117 22.1884 69.6256 19.214 66.5747C18.4352 65.7766 17.9602 65.0465 17.7757 63.8875C17.2438 60.5244 14.3725 58.3095 11.0182 58.4235C7.6829 58.5375 5.03962 60.975 4.65968 64.3652C4.57555 65.1171 4.33402 65.6355 3.74511 66.1377C2.24979 67.4107 1.24838 69.0393 0.61605 70.9068C0.415226 71.4985 0.417939 72.1581 0.0461426 72.6928V73.3008C0.211687 73.7079 0.211687 74.1124 0.0461426 74.5195V76.1427C0.306672 77.0412 0.271392 77.9858 0.673041 78.8761C2.23622 82.3368 4.80623 84.587 8.47806 85.5343C9.2298 85.7298 9.52832 86.0962 9.51475 86.8752C9.47947 88.9354 9.50932 90.9983 9.50118 93.0585C9.49575 94.2474 9.42248 94.3207 8.23653 94.3288C6.14144 94.3424 4.04635 94.3207 1.95126 94.3397C1.03127 94.3478 0.290389 94.6274 0.0461426 95.6344V103.148C0.238826 103.498 0.393515 103.883 0.857582 103.959H103.175C103.805 103.465 104.024 102.83 104.003 102.021C103.954 100.194 103.992 98.3678 103.986 96.541H103.984ZM84.4006 74.2101C84.4603 71.5555 85.6083 69.2429 87.9557 67.6061C88.7808 67.0307 89.0766 66.4172 88.987 65.4129C88.7753 63.0352 90.5583 61.1188 92.8189 61.1596C95.1583 61.2003 96.8409 63.1899 96.5152 65.6111C96.3849 66.5828 96.868 67.0795 97.5709 67.598C100.306 69.6174 101.544 72.3508 100.998 75.7166C100.429 79.2479 98.3118 81.547 94.8652 82.5051C89.6139 83.9627 84.4033 79.9075 84.4006 74.2128V74.2101ZM38.3684 2.82834C42.9358 2.85549 47.5005 2.84192 52.0679 2.84192C56.6353 2.84192 61.067 2.86092 65.5638 2.82292C66.2803 2.81749 66.4567 2.99935 66.4431 3.70779C66.397 6.24299 66.4024 8.78361 66.4431 11.3188C66.4539 11.9811 66.2748 12.1603 65.6072 12.1575C56.543 12.1358 47.476 12.1331 38.4118 12.1575C37.7252 12.1575 37.5786 11.9512 37.5868 11.3052C37.6221 8.73475 37.6275 6.16156 37.5868 3.59107C37.5759 2.94778 37.7632 2.81749 38.3738 2.8202L38.3684 2.82834ZM30.3951 54.7184C30.3951 41.8606 30.4032 29.0027 30.3788 16.1476C30.3788 15.2872 30.5063 14.9615 31.4942 14.9642C45.1937 15.0022 58.8959 14.9995 72.5981 14.9696C73.4312 14.9696 73.6538 15.1515 73.6511 16.0092C73.6266 41.8932 73.6266 67.7771 73.6456 93.6611C73.6456 94.413 73.5154 94.6898 72.6768 94.679C68.549 94.6301 64.4213 94.6382 60.2962 94.6735C59.5499 94.6817 59.3301 94.5161 59.3382 93.7344C59.3789 89.234 59.36 84.7336 59.3572 80.2332C59.3572 78.4933 59.0099 78.135 57.3083 78.135C53.7233 78.135 50.1356 78.1296 46.5506 78.135C45.1014 78.135 44.6753 78.5585 44.6726 79.9944C44.6672 84.5273 44.6509 89.063 44.6889 93.5959C44.697 94.4048 44.5505 94.6871 43.6658 94.6762C39.6059 94.6247 35.546 94.6274 31.4888 94.6762C30.6312 94.6871 30.3679 94.5215 30.3707 93.5932C30.4059 80.635 30.3951 67.6767 30.3951 54.7157V54.7184ZM3.28919 76.9896C2.16023 73.4637 3.39774 69.7314 6.44539 67.5898C7.15913 67.0877 7.66391 66.5801 7.49836 65.6056C7.22698 64.0205 7.80231 62.7339 9.11582 61.8381C10.394 60.9668 11.77 60.9017 13.1269 61.6807C14.5571 62.5004 15.1541 63.7843 15.0591 65.4998C14.7742 66.4281 15.2545 67.0334 16.066 67.6007C19.1136 69.7396 20.3484 73.5315 19.2005 77.0086C18.0579 80.4721 14.8393 82.8173 11.238 82.8037C7.6232 82.7901 4.38558 80.4232 3.28647 76.9869L3.28919 76.9896ZM100.99 101.006C100.502 101.492 99.4543 101.147 98.651 101.147C83.0898 101.155 67.5313 101.153 51.9702 101.153C36.409 101.153 19.9712 101.147 3.97036 101.172C3.12636 101.172 2.73014 101.044 2.86854 100.102C2.99066 99.2771 2.5266 98.1832 3.0368 97.662C3.54972 97.1382 4.64068 97.5073 5.47383 97.5073C36.9653 97.4992 68.4595 97.5073 99.9509 97.4774C100.909 97.4774 101.3 97.662 101.153 98.669C101.039 99.4616 101.482 100.52 100.988 101.009L100.99 101.006Z" fill="black"/>
</g>
<defs>
<clipPath id="clip0_101_1868">
<rect width="104" height="104" fill="white"/>
</clipPath>
</defs>
</svg>
