<svg width="34" height="34" viewBox="0 0 34 34" fill="none" xmlns="http://www.w3.org/2000/svg">
<g clip-path="url(#clip0_237_612)">
<path d="M33.0298 24.0252L25.5923 20.8377C25.2746 20.7023 24.9215 20.6737 24.5861 20.7564C24.2508 20.839 23.9514 21.0284 23.7329 21.2959L20.4392 25.3201C15.2699 22.8829 11.1099 18.7228 8.67266 13.5536L12.6969 10.2598C12.9649 10.0418 13.1547 9.74237 13.2374 9.40687C13.32 9.07137 13.2911 8.71807 13.1551 8.40045L9.96758 0.962953C9.81824 0.620568 9.55411 0.341022 9.22074 0.172518C8.88737 0.00401436 8.50565 -0.0428855 8.14141 0.0399057L1.23516 1.63366C0.88398 1.71475 0.570659 1.91248 0.346332 2.19458C0.122005 2.47668 -8.08968e-05 2.82648 4.0217e-08 3.1869C4.0217e-08 20.2201 13.8059 33.9994 30.8125 33.9994C31.173 33.9996 31.523 33.8776 31.8052 33.6533C32.0875 33.4289 32.2853 33.1155 32.3664 32.7642L33.9602 25.858C34.0424 25.492 33.9945 25.1087 33.8247 24.7742C33.6549 24.4397 33.3738 24.1748 33.0298 24.0252Z" fill="#FB7125"/>
</g>
<defs>
<clipPath id="clip0_237_612">
<rect width="34" height="34" fill="white"/>
</clipPath>
</defs>
</svg>
