<svg width="101" height="101" viewBox="0 0 101 101" fill="none" xmlns="http://www.w3.org/2000/svg">
<g clip-path="url(#clip0_101_1886)">
<path d="M102 1.34203C102 0.249435 101.747 0 100.658 0C67.8837 0.0316185 35.1128 0.0316185 2.34203 0C1.24943 0 1 0.252948 1 1.34203C1.03864 17.7274 1.02811 34.1128 1.02811 50.4982C1.02811 66.8837 1.03864 83.2691 1 99.6545C1 100.747 1.25295 100.996 2.34554 100.996C35.1164 100.965 67.8872 100.965 100.658 100.996C101.751 100.996 102 100.744 102 99.6545C101.968 66.8837 101.968 34.1128 102 1.34203ZM34.1748 30.2765C34.2837 29.616 34.5683 29.4509 35.2112 29.4544C41.7352 29.479 48.2556 29.4895 54.7795 29.4438C55.6965 29.4368 55.7211 29.8162 55.7176 30.5154C55.6965 35.1106 55.707 39.7093 55.707 44.3045C55.707 48.8998 55.6895 53.3228 55.7246 57.8302C55.7316 58.6418 55.5841 58.9334 54.6777 58.9298C45.5294 58.8912 36.3776 58.8947 27.2293 58.9298C26.3791 58.9298 26.2386 58.6699 26.2456 57.9005C26.2843 54.18 26.2737 50.4596 26.2526 46.7356C26.2491 46.1314 26.3967 45.6747 26.8147 45.218C30.7284 40.96 33.2228 35.9889 34.1748 30.2729V30.2765ZM10.742 8.40701C15.5586 8.47727 20.3751 8.45619 25.1917 8.42106C26.0137 8.41403 26.2948 8.57915 26.2878 9.47501C26.2386 14.9485 26.3229 20.422 26.2421 25.8955C26.1051 35.2125 19.0752 43.774 10.0464 45.7379C9.87777 45.773 9.70211 45.759 9.43862 45.773V44.4486C9.43862 32.8903 9.45619 21.3284 9.41052 9.77011C9.40701 8.70211 9.62482 8.39647 10.742 8.41052V8.40701ZM47.3106 91.6409C47.3281 92.3927 47.0998 92.5754 46.3655 92.5719C34.3645 92.5508 22.36 92.5508 10.3591 92.5719C9.61428 92.5719 9.42106 92.3717 9.42457 91.6304C9.44565 79.4959 9.44214 67.3614 9.43862 55.2305C9.43862 54.7948 9.35782 54.3416 9.99722 54.2538C12.6953 53.8849 15.2353 52.975 17.8527 51.8614C17.8527 56.5725 17.9089 61.1607 17.8175 65.7419C17.7894 67.0663 18.1161 67.3966 19.4336 67.3544C22.7605 67.2455 26.091 67.3509 29.418 67.2982C30.2822 67.2841 30.4965 67.523 30.4895 68.3767C30.4474 73.2811 30.4895 78.189 30.4474 83.0934C30.4403 83.9576 30.6722 84.1719 31.5259 84.1649C36.4303 84.1228 41.3382 84.1649 46.2425 84.1227C47.1068 84.1157 47.3387 84.3476 47.3141 85.2013C47.2508 87.3443 47.2614 89.4944 47.3141 91.6409H47.3106ZM92.3985 92.586C80.5346 92.5438 68.6706 92.5473 56.8066 92.5825C55.8581 92.5825 55.6543 92.319 55.6824 91.4231C55.7527 89.3679 55.7597 87.3057 55.6824 85.2505C55.6438 84.3019 55.9424 84.1192 56.8383 84.1227C64.4548 84.1614 72.0713 84.1228 79.6914 84.1684C80.7102 84.1755 80.9807 83.926 80.9702 82.8967C80.914 77.5988 80.8999 72.3009 80.9632 67.0066C81.0475 59.917 85.7727 53.5582 92.4864 51.3625C92.8131 51.2571 93.1538 51.2009 93.5614 51.1025V54.1836C93.5614 66.571 93.5508 78.9619 93.5825 91.3493C93.5825 92.2838 93.4244 92.586 92.3985 92.5825V92.586ZM93.5719 41.5502C93.5754 42.2283 93.4244 42.4953 92.6866 42.6533C80.7172 45.225 72.5632 55.3394 72.5316 67.5863C72.5245 69.9963 72.4999 72.4063 72.5491 74.8129C72.5632 75.5541 72.3524 75.7544 71.6111 75.7509C61.0119 75.7263 50.4092 75.7263 39.8099 75.7509C39.0722 75.7509 38.8508 75.5647 38.8684 74.8164C38.9176 72.6698 38.9281 70.5233 38.8684 68.3767C38.8438 67.5195 39.0792 67.2982 39.9399 67.3017C47.56 67.3369 55.1836 67.2982 62.8036 67.3509C63.8892 67.3579 64.1632 67.1085 64.1527 66.0089C64.0894 60.0962 64.1246 54.1836 64.1246 48.2674C64.1246 42.3512 64.1421 36.4386 64.1035 30.5259C64.0965 29.6827 64.2967 29.4403 65.168 29.4438C74.2776 29.479 83.3908 29.4755 92.5004 29.4438C93.34 29.4438 93.6 29.63 93.586 30.5048C93.5333 34.1831 93.5473 37.8649 93.5754 41.5432L93.5719 41.5502ZM92.3739 21.0825C82.9551 21.0403 73.5363 21.0579 64.1175 21.0579C54.6987 21.0579 45.2799 21.0403 35.8611 21.0825C34.8845 21.086 34.628 20.8647 34.6456 19.874C34.7159 16.4135 34.7018 12.953 34.6526 9.49257C34.6386 8.63536 34.8704 8.41754 35.7276 8.41754C54.6531 8.44214 73.5785 8.44214 92.5039 8.41754C93.3576 8.41754 93.593 8.62482 93.5825 9.48906C93.5298 12.9495 93.5192 16.41 93.586 19.8705C93.607 20.8542 93.3576 21.086 92.3739 21.0825Z" fill="black"/>
</g>
<defs>
<clipPath id="clip0_101_1886">
<rect width="101" height="101" fill="white"/>
</clipPath>
</defs>
</svg>
