<svg width="25" height="26" viewBox="0 0 25 26" fill="none" xmlns="http://www.w3.org/2000/svg">
<g clip-path="url(#clip0_237_569)">
<path d="M3.125 23.1524C3.125 23.774 3.37193 24.3701 3.81147 24.8096C4.25101 25.2492 4.84715 25.4961 5.46875 25.4961H19.5312C20.1529 25.4961 20.749 25.2492 21.1885 24.8096C21.6281 24.3701 21.875 23.774 21.875 23.1524V6.7461H3.125V23.1524ZM16.4062 10.6524C16.4062 10.4452 16.4886 10.2464 16.6351 10.0999C16.7816 9.95341 16.9803 9.8711 17.1875 9.8711C17.3947 9.8711 17.5934 9.95341 17.7399 10.0999C17.8864 10.2464 17.9688 10.4452 17.9688 10.6524V21.5899C17.9688 21.7971 17.8864 21.9958 17.7399 22.1423C17.5934 22.2888 17.3947 22.3711 17.1875 22.3711C16.9803 22.3711 16.7816 22.2888 16.6351 22.1423C16.4886 21.9958 16.4062 21.7971 16.4062 21.5899V10.6524ZM11.7188 10.6524C11.7188 10.4452 11.8011 10.2464 11.9476 10.0999C12.0941 9.95341 12.2928 9.8711 12.5 9.8711C12.7072 9.8711 12.9059 9.95341 13.0524 10.0999C13.1989 10.2464 13.2812 10.4452 13.2812 10.6524V21.5899C13.2812 21.7971 13.1989 21.9958 13.0524 22.1423C12.9059 22.2888 12.7072 22.3711 12.5 22.3711C12.2928 22.3711 12.0941 22.2888 11.9476 22.1423C11.8011 21.9958 11.7188 21.7971 11.7188 21.5899V10.6524ZM7.03125 10.6524C7.03125 10.4452 7.11356 10.2464 7.26007 10.0999C7.40659 9.95341 7.6053 9.8711 7.8125 9.8711C8.0197 9.8711 8.21841 9.95341 8.36493 10.0999C8.51144 10.2464 8.59375 10.4452 8.59375 10.6524V21.5899C8.59375 21.7971 8.51144 21.9958 8.36493 22.1423C8.21841 22.2888 8.0197 22.3711 7.8125 22.3711C7.6053 22.3711 7.40659 22.2888 7.26007 22.1423C7.11356 21.9958 7.03125 21.7971 7.03125 21.5899V10.6524ZM22.6562 2.0586H16.7969L16.3379 1.14552C16.2407 0.950308 16.0909 0.786104 15.9054 0.671375C15.72 0.556646 15.5062 0.495946 15.2881 0.496102H9.70703C9.48944 0.495266 9.27602 0.55574 9.09121 0.670596C8.90641 0.785452 8.75769 0.950045 8.66211 1.14552L8.20312 2.0586H2.34375C2.13655 2.0586 1.93784 2.14091 1.79132 2.28743C1.64481 2.43394 1.5625 2.63265 1.5625 2.83985L1.5625 4.40235C1.5625 4.60955 1.64481 4.80827 1.79132 4.95478C1.93784 5.10129 2.13655 5.1836 2.34375 5.1836H22.6562C22.8635 5.1836 23.0622 5.10129 23.2087 4.95478C23.3552 4.80827 23.4375 4.60955 23.4375 4.40235V2.83985C23.4375 2.63265 23.3552 2.43394 23.2087 2.28743C23.0622 2.14091 22.8635 2.0586 22.6562 2.0586Z" fill="black"/>
</g>
<defs>
<clipPath id="clip0_237_569">
<rect width="25" height="25" fill="white" transform="translate(0 0.496094)"/>
</clipPath>
</defs>
</svg>
