<svg width="31" height="31" viewBox="0 0 31 31" fill="none" xmlns="http://www.w3.org/2000/svg">
<path d="M26.2256 4.6377C23.3613 1.7666 19.5469 0.1875 15.4932 0.1875C7.12598 0.1875 0.317383 6.99609 0.317383 15.3633C0.317383 18.0361 1.01465 20.6475 2.34082 22.9512L0.1875 30.8125L8.2334 28.7002C10.4482 29.9102 12.9434 30.5459 15.4863 30.5459H15.4932C23.8535 30.5459 30.8125 23.7373 30.8125 15.3701C30.8125 11.3164 29.0898 7.50879 26.2256 4.6377ZM15.4932 27.9893C13.2236 27.9893 11.002 27.3809 9.06738 26.2324L8.60938 25.959L3.83789 27.21L5.10938 22.5547L4.80859 22.0762C3.54395 20.0664 2.88086 17.749 2.88086 15.3633C2.88086 8.41113 8.54102 2.75098 15.5 2.75098C18.8701 2.75098 22.0352 4.06348 24.4141 6.44922C26.793 8.83496 28.2559 12 28.249 15.3701C28.249 22.3291 22.4453 27.9893 15.4932 27.9893ZM22.4111 18.542C22.0352 18.3506 20.1689 17.4346 19.8203 17.3115C19.4717 17.1816 19.2188 17.1201 18.9658 17.5029C18.7129 17.8857 17.9883 18.7334 17.7627 18.9932C17.5439 19.2461 17.3184 19.2803 16.9424 19.0889C14.7139 17.9746 13.251 17.0996 11.7812 14.5771C11.3916 13.9072 12.1709 13.9551 12.8955 12.5059C13.0186 12.2529 12.957 12.0342 12.8613 11.8428C12.7656 11.6514 12.0068 9.78516 11.6924 9.02637C11.3848 8.28809 11.0703 8.39062 10.8379 8.37695C10.6191 8.36328 10.3662 8.36328 10.1133 8.36328C9.86035 8.36328 9.4502 8.45898 9.10156 8.83496C8.75293 9.21777 7.77539 10.1338 7.77539 12C7.77539 13.8662 9.13574 15.6709 9.32031 15.9238C9.51172 16.1768 11.9932 20.0049 15.8008 21.6523C18.207 22.6914 19.1504 22.7803 20.3535 22.6025C21.085 22.4932 22.5957 21.6865 22.9102 20.7979C23.2246 19.9092 23.2246 19.1504 23.1289 18.9932C23.04 18.8223 22.7871 18.7266 22.4111 18.542Z" fill="#FB7125"/>
</svg>
